<?xml version="1.0" ?><svg enable-background="new 0 0 32 32" version="1.1" viewBox="0 0 32 32" xml:space="preserve" xmlns="http://www.w3.org/2000/svg" xmlns:xlink="http://www.w3.org/1999/xlink"><g id="Layer_2"><g><path d="M32,6.19V4.6c0-0.99-0.81-1.8-1.8-1.8H7.19H1.8C0.81,2.8,0,3.61,0,4.6v1.59H32z" fill="#F33052"/><g><g><rect fill="#FFFFFF" height="22" width="31" x="0.5" y="6.7"/><path d="M31,7.2v21H1v-21H31 M32,6.2H0v23h32V6.2L32,6.2z" fill="#EFEFEF"/></g><g><path d="M30.5,7.7v20h-29v-20H30.5 M30.75,7.45H1.25v20.5h29.5V7.45L30.75,7.45z" fill="#E0E0E0"/></g></g><circle cx="2.53" cy="4.5" fill="#FFFFFF" r="0.51"/><circle cx="4.07" cy="4.5" fill="#FFFFFF" r="0.51"/><circle cx="5.6" cy="4.5" fill="#FFFFFF" r="0.51"/><path d="M26.77,5.4H10.68c-0.49,0-0.9-0.4-0.9-0.9v0c0-0.49,0.4-0.9,0.9-0.9h16.09c0.49,0,0.9,0.4,0.9,0.9v0    C27.66,4.99,27.26,5.4,26.77,5.4z" fill="#FFFFFF"/><g><path d="M11.29,4.09l0.12,0.47c0.03,0.1,0.05,0.2,0.07,0.3h0.01c0.02-0.09,0.05-0.19,0.08-0.29l0.15-0.47h0.14l0.14,0.47     c0.03,0.11,0.06,0.21,0.08,0.3h0.01c0.02-0.09,0.04-0.19,0.07-0.3l0.13-0.47h0.17l-0.3,0.93h-0.15l-0.14-0.44     c-0.03-0.1-0.06-0.2-0.08-0.31h0c-0.02,0.11-0.05,0.21-0.08,0.31l-0.15,0.44h-0.15l-0.28-0.93H11.29z"/><path d="M12.72,4.09l0.12,0.47c0.03,0.1,0.05,0.2,0.07,0.3h0.01c0.02-0.09,0.05-0.19,0.08-0.29l0.15-0.47h0.14l0.14,0.47     c0.03,0.11,0.06,0.21,0.08,0.3h0.01c0.02-0.09,0.04-0.19,0.07-0.3l0.13-0.47h0.17l-0.3,0.93h-0.15L13.3,4.57     c-0.03-0.1-0.06-0.2-0.08-0.31h0c-0.02,0.11-0.05,0.21-0.08,0.31l-0.15,0.44h-0.15l-0.28-0.93H12.72z"/><path d="M14.16,4.09l0.12,0.47c0.03,0.1,0.05,0.2,0.07,0.3h0.01c0.02-0.09,0.05-0.19,0.08-0.29l0.15-0.47h0.14l0.14,0.47     c0.03,0.11,0.06,0.21,0.08,0.3h0.01c0.02-0.09,0.04-0.19,0.07-0.3l0.13-0.47h0.17l-0.3,0.93h-0.15l-0.14-0.44     c-0.03-0.1-0.06-0.2-0.08-0.31h0c-0.02,0.11-0.05,0.21-0.08,0.31l-0.15,0.44h-0.15l-0.28-0.93H14.16z"/><path d="M15.39,4.92c0-0.07,0.05-0.12,0.12-0.12s0.11,0.05,0.11,0.12c0,0.07-0.04,0.12-0.12,0.12     C15.43,5.04,15.39,4.99,15.39,4.92z"/></g><g><line fill="none" stroke="#FFFFFF" stroke-miterlimit="10" stroke-width="0.25" x1="28.83" x2="30.27" y1="4.52" y2="4.52"/><polyline fill="none" points="29.57,3.86 30.23,4.52 29.57,5.18         " stroke="#FFFFFF" stroke-miterlimit="10" stroke-width="0.25"/></g><polygon fill="#C9C9C9" points="26.86,4.21 26.39,4.83 25.91,4.21   "/><path d="M9.19,2.8h-2H1.8C0.81,2.8,0,3.61,0,4.6v1.59h7.24L9.19,2.8z" fill="#FFFFFF" opacity="0.25"/></g></g><g id="style_2"><rect fill="#F33052" height="8.88" width="15.98" x="8.01" y="10.16"/><rect fill="#C9C9C9" height="0.89" width="15.98" x="8.01" y="24.36"/><rect fill="#C9C9C9" height="0.89" width="15.98" x="8.01" y="21.7"/></g></svg>