<?xml version="1.0" encoding="UTF-8"?>
<svg width="48px" height="14px" viewBox="0 0 48 14" version="1.1" xmlns="http://www.w3.org/2000/svg" xmlns:xlink="http://www.w3.org/1999/xlink">
    <!-- Generator: Sketch 42 (36781) - http://www.bohemiancoding.com/sketch -->
    <title>⟷</title>
    <desc>Created with Sketch.</desc>
    <defs></defs>
    <g id="Symbols" stroke="none" stroke-width="1" fill="none" fill-rule="evenodd">
        <g id="⟷" transform="translate(-2.000000, -10.000000)" fill="#FFFFFF">
            <path d="M49.064,16.744 C45.992,15.464 43.592,13.064 41.512,10.664 L40.872,11.272 C41.576,12.328 42.536,13.448 43.464,14.344 C43.784,14.664 43.912,14.856 43.912,15.144 C43.912,15.464 43.4,15.848 43.08,15.848 L8.23200005,15.848 C7.65600005,15.848 7.40000005,15.528 7.40000005,15.208 C7.40000005,14.952 7.56000005,14.6 7.84800005,14.312 C8.80800005,13.32 9.70400005,12.296 10.44,11.24 L9.80000005,10.632 C7.68800005,13.064 5.28800005,15.432 2.21600005,16.744 L2.21600005,17.064 C5.28800005,18.344 7.72000005,20.776 9.80000005,23.176 L10.44,22.568 C9.73600005,21.512 8.74400005,20.36 7.81600005,19.464 C7.49600005,19.144 7.36800005,18.952 7.36800005,18.664 C7.36800005,18.344 7.88000005,17.96 8.20000005,17.96 L43.048,17.96 C43.624,17.96 43.88,18.28 43.88,18.6 C43.88,18.856 43.72,19.208 43.432,19.496 C42.472,20.488 41.544,21.512 40.808,22.568 L41.448,23.176 C43.56,20.744 45.992,18.376 49.064,17.064 L49.064,16.744 Z"></path>
        </g>
    </g>
</svg>