<?xml version="1.0" encoding="UTF-8"?>
<svg width="26px" height="17px" viewBox="0 0 26 17" version="1.1" xmlns="http://www.w3.org/2000/svg" xmlns:xlink="http://www.w3.org/1999/xlink">
    <!-- Generator: Sketch 42 (36781) - http://www.bohemiancoding.com/sketch -->
    <title>Group 4</title>
    <desc>Created with Sketch.</desc>
    <defs></defs>
    <g id="Elements" stroke="none" stroke-width="1" fill="none" fill-rule="evenodd">
        <g id="mockup-perio-elements" transform="translate(-565.000000, -190.000000)" fill="#FFFFFF">
            <g id="Group-4" transform="translate(565.000000, 190.000000)">
                <path d="M6.47295723,6.12704918 C5.18730336,6.12704918 3.04018168,8.82914959 2.29486683,11.3836066 C2.04889585,12.2689037 2.08704413,12.9507684 2.41443606,13.4607582 C2.81584703,14.086834 3.68984114,14.5072234 5.08424607,14.7461578 C7.61683617,15.1840164 8.6855573,14.5652664 8.84498294,12.5061475 C9.02433678,9.74994877 7.82693638,6.35358607 6.59765086,6.1366291 C6.55950258,6.13043033 6.51622991,6.12704918 6.47295723,6.12704918 Z M6.38698127,16 C5.93546509,16 5.44580064,15.9526639 4.88894967,15.8563012 C3.16088966,15.5604508 2.03636955,14.9743852 1.45332723,14.0648566 C0.951136478,13.2815574 0.865729888,12.276793 1.19938497,11.0776127 C1.94014479,8.5361168 4.30419922,5 6.47295723,5 C6.58170829,5 6.68761246,5.00901639 6.79294726,5.02648566 C9.01522674,5.41813525 10.1647994,9.76460041 9.98089059,12.5856045 C9.8077999,14.8216701 8.56484932,16 6.38698127,16 L6.38698127,16 Z" id="Fill-108"></path>
                <path d="M13.4980117,7.12780028 C12.2476939,7.13287538 10.4724947,10.2783104 10.168797,13.0329625 C10.0794067,13.9504281 10.2364127,14.6175219 10.6489832,15.0646947 C11.1509439,15.6082945 12.0792276,15.8721997 13.4871244,15.8721997 L13.51291,15.8721997 C14.9202339,15.8721997 15.8490905,15.6082945 16.3510513,15.0646947 C16.7636218,14.6175219 16.9212008,13.9504281 16.8306645,13.0256318 C16.5281128,10.2783104 14.7523406,7.13287538 13.4980117,7.12780028 Z M13.51291,17 L13.4997307,17 C11.7382839,17 10.5320882,16.6154201 9.80149461,15.8231404 C9.16716747,15.1368739 8.90759186,14.159635 9.02907095,12.9179269 C9.33907184,10.0989901 11.2340311,6.0090224 13.4980117,6 C15.7665764,6.0090224 17.6615356,10.0989901 17.9709635,12.9111601 C18.0924426,14.159635 17.832294,15.1374378 17.1991128,15.8231404 C16.4679462,16.6154201 15.2617505,17 13.51291,17 L13.51291,17 Z" id="Fill-109"></path>
                <path d="M19.5272032,6.12704918 C19.4833591,6.12704918 19.4406539,6.13043033 19.3985181,6.13775615 C18.173163,6.35358607 16.9757086,9.74994877 17.1556399,12.5129098 C17.3139339,14.5635758 18.3878279,15.1828893 20.9142688,14.7461578 C22.3104448,14.5072234 23.1833395,14.0873975 23.585338,13.4613217 C23.9127447,12.9507684 23.9514641,12.2689037 23.7037738,11.3768443 C22.9607029,8.82914959 20.812915,6.12704918 19.5272032,6.12704918 Z M19.613183,16 C17.4352167,16 16.1922101,14.8216701 16.0191116,12.5923668 C15.8351945,9.76460041 16.984819,5.41813525 19.2032129,5.0276127 C19.3125383,5.00901639 19.4190166,5 19.5272032,5 C21.6971978,5 24.0607894,8.5361168 24.7993051,11.0708504 C25.1346834,12.276793 25.049273,13.2821209 24.5464902,14.0654201 C23.9634215,14.9749488 22.8388507,15.5604508 21.109574,15.8563012 C20.5544061,15.9526639 20.0647196,16 19.613183,16 L19.613183,16 Z" id="Fill-110"></path>
                <path d="M22.8114313,9 C22.5834868,9 22.3699272,8.8557529 22.2891507,8.62652302 C22.1879036,8.33523334 22.3389444,8.0154297 22.6277479,7.91311489 C24.2997094,7.31767629 25.24247,5.49501917 24.773856,3.76349491 L24.752832,3.68633948 C24.2836647,1.95201973 22.5917857,0.892530389 20.8307488,1.2196023 C15.5725349,2.19354975 10.2435034,2.17845413 4.99192862,1.17319722 C3.39576415,0.867371012 1.8084519,1.86535965 1.38077941,3.44536856 L1.21756675,4.04807542 C0.779935525,5.66498474 1.67456219,7.35178123 3.25523529,7.88795552 C3.54514523,7.98635664 3.70116546,8.30336479 3.60379113,8.59577267 C3.5064168,8.88873964 3.1932698,9.04640507 2.9028066,8.94800395 C0.766657207,8.22341388 -0.442222986,5.9411788 0.15032195,3.75231296 L0.314087871,3.1496061 C0.892247964,1.01161811 3.03669631,-0.339720009 5.19829581,0.0745710732 C10.3148743,1.0535504 15.5078031,1.06920513 20.6304675,0.119857953 C22.9691113,-0.311765145 25.1976556,1.09268721 25.8200768,3.39113612 L25.8411008,3.46885064 C26.4618621,5.76282677 25.2120405,8.178127 22.9951146,8.96813146 C22.9342557,8.98937715 22.8722902,9 22.8114313,9" id="Fill-111"></path>
                <path d="M9.53477226,10 C9.52545474,10 9.51706896,9.99953691 9.50775144,9.99907381 C9.14762904,9.97869771 8.78750663,9.95415377 8.42785011,9.92497889 C8.17161813,9.90413969 7.98060884,9.68046564 8.00157327,9.42576434 C8.02253771,9.17059995 8.24243133,8.97795315 8.50425383,9.002034 C8.85599045,9.03028269 9.20865883,9.05436354 9.56086134,9.07427655 C9.81755919,9.08909553 10.0136931,9.30767556 9.99925096,9.56283995 C9.98527467,9.80966866 9.77982321,10 9.53477226,10" id="Fill-112"></path>
                <path d="M15.4763745,10 C15.2245219,10 15.0146448,9.80830324 15.000812,9.56030718 C14.9855482,9.30393603 15.1873165,9.08432226 15.4501398,9.06989848 C15.795483,9.05128714 16.1403493,9.02848825 16.4852155,9.00150181 C16.7461309,8.98102934 16.9774727,9.17226082 16.9984604,9.42863198 C17.0194481,9.68500314 16.8234038,9.90880445 16.5605804,9.92927692 C16.2085593,9.95672864 15.8560612,9.97999281 15.5030861,9.99906943 C15.4940232,9.99953472 15.4849603,10 15.4763745,10" id="Fill-113"></path>
            </g>
        </g>
    </g>
</svg>