<?xml version="1.0" encoding="UTF-8"?>
<svg width="28px" height="28px" viewBox="0 0 28 28" version="1.1" xmlns="http://www.w3.org/2000/svg" xmlns:xlink="http://www.w3.org/1999/xlink">
    <!-- Generator: Sketch 42 (36781) - http://www.bohemiancoding.com/sketch -->
    <title>Group 5</title>
    <desc>Created with Sketch.</desc>
    <defs></defs>
    <g id="Elements" stroke="none" stroke-width="1" fill="none" fill-rule="evenodd">
        <g id="mockup-perio-elements" transform="translate(-564.000000, -134.000000)" fill="#FFFFFF">
            <g id="Group-5" transform="translate(564.000000, 134.000000)">
                <polyline id="Fill-86" points="2.84316667 3.668 0 0.824833333 0.824833333 0 3.668 2.84316667 2.84316667 3.668"></polyline>
                <path d="M3.61083333,9.32225 L13.8955833,19.607 L13.09,20.412 C12.6443333,20.8570833 12.6443333,21.5821667 13.09,22.0278333 C13.5210833,22.4589167 14.273,22.4595 14.7058333,22.0278333 L22.02725,14.7058333 C22.2430833,14.49 22.3620833,14.203 22.3620833,13.8979167 C22.3620833,13.5928333 22.2430833,13.3058333 22.02725,13.09 C21.5955833,12.6589167 20.8436667,12.6583333 20.4114167,13.09 L19.6064167,13.8955833 L9.32166667,3.61083333 L3.81791667,3.8185 L3.61083333,9.32225 Z M13.8979167,23.5293333 C13.28075,23.5293333 12.7009167,23.289 12.2651667,22.8526667 C11.3709167,21.959 11.3645,20.5088333 12.2453333,19.6064167 L2.4255,9.78658333 L2.69266667,2.69325 L9.78658333,2.42608333 L19.6064167,12.2459167 C20.48025,11.3913333 21.9858333,11.3995 22.8520833,12.2651667 C23.2884167,12.7015 23.52875,13.2813333 23.52875,13.8979167 C23.52875,14.5145 23.2884167,15.0949167 22.8520833,15.5306667 L15.5306667,22.8526667 C15.0943333,23.289 14.5145,23.5293333 13.8979167,23.5293333 L13.8979167,23.5293333 Z" id="Fill-87"></path>
                <polyline id="Fill-88" points="5.18408333 11.71975 4.35925 10.8949167 7.62708333 7.62708333 8.45191667 8.45191667 5.18408333 11.71975"></polyline>
                <polyline id="Fill-89" points="9.14141667 15.6776667 8.31658333 14.8528333 11.5844167 11.5844167 12.40925 12.4098333 9.14141667 15.6776667"></polyline>
                <polyline id="Fill-90" points="7.16216667 13.699 6.33733333 12.8735833 10.9596667 8.25183333 11.7845 9.07666667 7.16216667 13.699"></polyline>
                <path d="M19.76975,24.14125 L21.4660833,25.8375833 L25.8375833,21.4660833 L24.14125,19.7703333 L22.5720833,21.3395 L19.8076667,18.5750833 L18.5745,19.80825 L21.3395,22.5720833 L19.76975,24.14125 Z M21.4660833,27.48725 L18.1200833,24.14125 L19.68925,22.5720833 L16.9248333,19.80825 L19.8076667,16.9254167 L22.5720833,19.6898333 L24.14125,18.1206667 L27.48725,21.4660833 L21.4660833,27.48725 L21.4660833,27.48725 Z" id="Fill-91"></path>
            </g>
        </g>
    </g>
</svg>