<?xml version="1.0" encoding="UTF-8"?>
<svg width="18px" height="28px" viewBox="0 0 18 28" version="1.1" xmlns="http://www.w3.org/2000/svg" xmlns:xlink="http://www.w3.org/1999/xlink">
    <!-- Generator: Sketch 42 (36781) - http://www.bohemiancoding.com/sketch -->
    <title>Group 3 Copy</title>
    <desc>Created with Sketch.</desc>
    <defs></defs>
    <g id="Elements" stroke="none" stroke-width="1" fill="none" fill-rule="evenodd">
        <g id="mockup-perio-elements" transform="translate(-872.000000, -134.000000)" fill="#FFFFFF">
            <g id="Group-3-Copy" transform="translate(872.000000, 134.000000)">
                <path d="M3,11.2076079 C2.06213466,11.2076079 1.29898246,11.9164738 1.29898246,12.7883667 L1.29898246,25.2110295 C1.29898246,26.0829224 2.06213466,26.7923921 3,26.7923921 C3.93786534,26.7923921 4.70101754,26.0829224 4.70101754,25.2110295 L4.70101754,12.7883667 C4.70101754,11.9164738 3.93786534,11.2076079 3,11.2076079 Z M3,28 C1.34574583,28 0,26.7489182 0,25.2110295 L0,12.7883667 C0,11.250478 1.34574583,10 3,10 C4.65425417,10 6,11.250478 6,12.7883667 L6,25.2110295 C6,26.7489182 4.65425417,28 3,28 L3,28 Z" id="Fill-98"></path>
                <polyline id="Fill-99" points="3.10744581 11 1.85076971 11 1.85076971 6.48058637 3.43166824 5.01250849 1 0.596445551 2.10273327 0 5 5.26216889 3.10744581 7.02037582 3.10744581 11"></polyline>
                <path d="M15.0003247,11.2076079 C14.0619115,11.2076079 13.2988419,11.9164738 13.2988419,12.7883667 L13.2988419,25.2110295 C13.2988419,26.0829224 14.0619115,26.7923921 15.0003247,26.7923921 C15.9380885,26.7923921 16.7011581,26.0829224 16.7011581,25.2110295 L16.7011581,12.7883667 C16.7011581,11.9164738 15.9380885,11.2076079 15.0003247,11.2076079 Z M15.0003247,28 C13.3462496,28 12,26.7489182 12,25.2110295 L12,12.7883667 C12,11.250478 13.3462496,10 15.0003247,10 C16.6537504,10 18,11.250478 18,12.7883667 L18,25.2110295 C18,26.7489182 16.6537504,28 15.0003247,28 L15.0003247,28 Z" id="Fill-100"></path>
                <path d="M15.1247065,11 L14.0729038,10.2266599 C14.7389792,9.39099466 14.8602646,8.28249809 14.3897038,7.33299415 L14,6.54502671 L15.1976103,6 L15.5873141,6.78733147 C16.2726097,8.16929534 16.0949895,9.78338845 15.1247065,11" id="Fill-101"></path>
                <path d="M12.5,1.17637173 C11.2190388,1.17637173 10.1762729,2.21863709 10.1762729,3.49970591 C10.1762729,4.78136291 11.2190388,5.82362827 12.5,5.82362827 C13.7809612,5.82362827 14.8237271,4.78136291 14.8237271,3.49970591 C14.8237271,2.21863709 13.7809612,1.17637173 12.5,1.17637173 Z M12.5,7 C10.5697362,7 9,5.43013192 9,3.49970591 C9,1.56986808 10.5697362,0 12.5,0 C14.4296757,0 16,1.56986808 16,3.49970591 C16,5.43013192 14.4296757,7 12.5,7 L12.5,7 Z" id="Fill-102"></path>
            </g>
        </g>
    </g>
</svg>