<?xml version="1.0" encoding="UTF-8"?>
<svg width="23px" height="23px" viewBox="0 0 23 23" version="1.1" xmlns="http://www.w3.org/2000/svg" xmlns:xlink="http://www.w3.org/1999/xlink">
    <!-- Generator: Sketch 42 (36781) - http://www.bohemiancoding.com/sketch -->
    <title>Group 3</title>
    <desc>Created with Sketch.</desc>
    <defs></defs>
    <g id="Elements" stroke="none" stroke-width="1" fill="none" fill-rule="evenodd">
        <g id="mockup-perio-elements" transform="translate(-870.000000, -187.000000)" fill="#FFFFFF">
            <g id="Group-3" transform="translate(870.000000, 187.000000)">
                <path d="M2.15285862,0.978723404 C2.05058203,0.978723404 1.94781607,0.995361702 1.84749692,1.02668085 C1.20741181,1.2292766 0.838922451,1.99904255 1.02585862,2.7433617 L1.96494373,6.48110638 C2.02611394,6.72382979 2.14258203,6.94159574 2.30162458,7.11091489 L7.50990117,12.6695745 C7.72668841,12.9010426 8.0066033,13.028766 8.29777352,13.028766 L14.0169437,13.028766 L20.5107735,15.3268085 C21.1117097,15.5377234 21.7659863,15.1305745 21.9612416,14.4361702 C22.1682416,13.6987021 21.8198161,12.9147447 21.1836459,12.6896383 L14.5244118,10.3338511 C14.4152842,10.2956809 14.3022416,10.2761064 14.1882203,10.2761064 L8.74945437,10.2761064 L4.12205011,5.33648936 L3.27545437,1.96870213 C3.12913522,1.38587234 2.66766713,0.978723404 2.15285862,0.978723404 Z M20.8474544,16.363766 C20.6228373,16.363766 20.4001778,16.3251064 20.1848586,16.2497447 L13.8486033,14.0074894 L8.29777352,14.0074894 C7.73256075,14.0074894 7.19915649,13.7696596 6.79543309,13.3385319 L1.58764586,7.7803617 C1.31556075,7.49017021 1.11785862,7.1236383 1.01607139,6.71991489 L0.0764969196,2.98168085 C-0.2337584,1.74506383 0.427858622,0.449234043 1.55192245,0.0939574468 C1.74815649,0.0318085106 1.95026288,0 2.15285862,0 C3.11690117,0 3.9688799,0.711531915 4.22481607,1.72989362 L5.00926288,4.85202128 L9.17373096,9.29738298 L14.1882203,9.29738298 C14.4128373,9.29738298 14.6359863,9.33555319 14.8503267,9.41091489 L21.5100501,11.7671915 C22.6218799,12.1606383 23.2472842,13.4770213 22.9037522,14.7009149 C22.6243267,15.6957872 21.7982842,16.363766 20.8474544,16.363766 L20.8474544,16.363766 Z" id="Fill-344"></path>
                <path d="M8.76658203,18.8790851 L12.8689012,18.8790851 L12.3839437,14.0383191 L9.25153947,14.0383191 L8.76658203,18.8790851 Z M13.9503905,19.8578085 L7.68509266,19.8578085 L8.36579479,13.0595957 L13.2696884,13.0595957 L13.9503905,19.8578085 L13.9503905,19.8578085 Z" id="Fill-345"></path>
                <path d="M7.87545437,22.0212766 L13.7600288,22.0212766 L13.0543693,19.8578085 L8.58111394,19.8578085 L7.87545437,22.0212766 Z M15.1087097,23 L6.52726288,23 L7.87105011,18.8790851 L13.7644331,18.8790851 L15.1087097,23 L15.1087097,23 Z" id="Fill-346"></path>
                <polygon id="Fill-347" points="5.63222032 6.7223617 12.6560288 6.7223617 12.6560288 5.7436383 5.63222032 5.7436383"></polygon>
            </g>
        </g>
    </g>
</svg>