<?xml version="1.0" encoding="UTF-8"?>
<svg width="536px" height="93px" viewBox="0 0 536 93" version="1.1" xmlns="http://www.w3.org/2000/svg" xmlns:xlink="http://www.w3.org/1999/xlink">
    <!-- Generator: Sketch 42 (36781) - http://www.bohemiancoding.com/sketch -->
    <title>logo-white</title>
    <desc>Created with Sketch.</desc>
    <defs></defs>
    <g id="Page-1" stroke="none" stroke-width="1" fill="none" fill-rule="evenodd">
        <g id="logo-white" fill="#FFFFFF">
            <g id="Layer_1">
                <g id="Group-2">
                    <path d="M31.81725,10.8763116 C29.2574291,7.17223372 25.5310845,5.32019477 20.6327736,5.32019477 C19.1088547,5.32019477 17.6121486,5.52239805 16.1426554,5.92501522 C14.6731622,6.32763238 13.3524324,6.9449787 12.1822804,7.77705417 C11.0121284,8.61091905 10.0723784,9.68277541 9.36665878,10.9979915 C8.659125,12.3132075 8.30535811,13.8556786 8.30535811,15.6271942 C8.30535811,18.203944 9.04010473,20.204504 10.509598,21.6270846 C11.9790912,23.0496652 13.8023514,24.2181497 15.9793784,25.1307486 C18.1564054,26.0433475 20.5366216,26.8611077 23.1236554,27.587608 C25.7070608,28.3123189 28.0890912,29.2786001 30.2679324,30.4864516 C32.4449595,31.6943031 34.2682196,33.2922459 35.7377128,35.2784906 C37.2072061,37.2647352 37.9419527,39.9756908 37.9419527,43.4113573 C37.9419527,45.9881071 37.3831824,48.3107608 36.2692703,50.3775289 C35.1535439,52.444297 33.6840507,54.1764455 31.8607905,55.5703956 C30.0375304,56.9679245 27.9965676,58.0397809 25.737902,58.7913329 C23.4792365,59.5410956 21.2060574,59.918661 18.9219932,59.918661 C15.3825101,59.918661 12.0226318,59.2601582 8.83872973,57.9449422 C5.6548277,56.6297261 2.94624324,54.4699087 0.714790541,51.4619111 L6.10293243,47.6773098 C7.35109459,49.7709191 9.08727365,51.4493853 11.3114696,52.7091296 C13.5356655,53.9706634 16.1662399,54.6005356 19.2050068,54.6005356 C20.6690574,54.6005356 22.1349223,54.3732806 23.598973,53.9169811 C25.0630236,53.4624711 26.380125,52.7896531 27.5448345,51.9038953 C28.7095439,51.0181376 29.6728784,49.9301765 30.4348378,48.6418016 C31.1931689,47.3534267 31.5723345,45.8789531 31.5723345,44.2130128 C31.5723345,42.2267681 31.1514426,40.5769324 30.3078446,39.259927 C29.4642466,37.9447109 28.3485203,36.844224 26.9606655,35.9584662 C25.5728108,35.0727085 23.9944662,34.3354717 22.2256318,33.7449665 C20.4567973,33.1544614 18.6335372,32.5639562 16.7558514,31.973451 C14.8781655,31.3829458 13.0549054,30.7119172 11.2860709,29.9603652 C9.5154223,29.2106026 7.93889189,28.2568472 6.55103716,27.102678 C5.16318243,25.9485088 4.04745608,24.499087 3.20385811,22.7544127 C2.36026014,21.0097383 1.93755405,18.8230797 1.93755405,16.1926476 C1.93755405,13.4548509 2.4672973,11.065989 3.53041216,9.02606208 C4.59171284,6.98613512 6.00678041,5.29514303 7.77561486,3.95308582 C9.54444932,2.61102861 11.5436858,1.61790627 13.7769527,0.973718807 C16.0065912,0.329531345 18.2942838,0.00743761412 20.6345878,0.00743761412 C23.9001284,0.00743761412 26.8663277,0.517419355 29.5331858,1.53738284 C32.2000439,2.55734632 34.6764122,4.35570298 36.9622905,6.93245283 L31.81725,10.8763116 Z" id="Shape"></path>
                    <polygon id="Shape" points="62.1033243 1.45506999 67.9812973 1.45506999 67.9812973 26.1757638 99.4937635 26.1757638 99.4937635 1.45506999 105.371736 1.45506999 105.371736 58.4656604 99.4937635 58.4656604 99.4937635 31.4903104 67.9812973 31.4903104 67.9812973 58.4656604 62.1033243 58.4656604"></polygon>
                    <path d="M189.622682,29.9603652 C189.622682,34.3086306 188.860723,38.3097505 187.336804,41.9583567 C185.812885,45.6105417 183.704797,48.7634814 181.010726,51.4207547 C178.316655,54.078028 175.132753,56.1591114 171.45902,57.660426 C167.785287,59.1635301 163.797699,59.9150822 159.499885,59.9150822 C155.198443,59.9150822 151.212669,59.1635301 147.538936,57.660426 C143.865203,56.1591114 140.681301,54.078028 137.98723,51.4207547 C135.293159,48.7634814 133.183257,45.6105417 131.659338,41.9583567 C130.135419,38.307961 129.373459,34.3086306 129.373459,29.9603652 C129.373459,25.6120998 130.133605,21.6127693 131.659338,17.9623737 C133.183257,14.3119781 135.291345,11.1572489 137.98723,8.49997565 C140.681301,5.84270237 143.865203,3.7634084 147.538936,2.25851491 C151.212669,0.757200243 155.198443,0.00385879489 159.499885,0.00385879489 C163.799514,0.00385879489 167.785287,0.755410834 171.45902,2.25851491 C175.132753,3.76161899 178.316655,5.84091296 181.010726,8.49997565 C183.704797,11.1572489 185.812885,14.3119781 187.336804,17.9623737 C188.860723,21.6145587 189.622682,25.6120998 189.622682,29.9603652 Z M183.254878,29.9603652 C183.254878,26.6857456 182.710622,23.559647 181.622108,20.58028 C180.53178,17.600913 178.969764,14.9847961 176.928801,12.7283506 C174.887838,10.4736945 172.396956,8.6753378 169.45797,7.33328058 C166.518983,5.99122337 163.199017,5.32019477 159.498071,5.32019477 C155.795311,5.32019477 152.477159,5.99122337 149.538172,7.33328058 C146.599186,8.6753378 144.110118,10.4736945 142.069155,12.7283506 C140.028193,14.9830067 138.462547,17.600913 137.374034,20.58028 C136.28552,23.559647 135.741264,26.687535 135.741264,29.9603652 C135.741264,33.2367742 136.28552,36.3628728 137.374034,39.3422398 C138.462547,42.3216068 140.028193,44.9377237 142.069155,47.1941692 C144.110118,49.4488253 146.599186,51.247182 149.538172,52.5892392 C152.477159,53.9312964 155.797125,54.602325 159.498071,54.602325 C163.199017,54.602325 166.518983,53.9312964 169.45797,52.5892392 C172.396956,51.247182 174.887838,49.4488253 176.928801,47.1941692 C178.969764,44.9395131 180.533595,42.3216068 181.622108,39.3422398 C182.708807,36.3628728 183.254878,33.2367742 183.254878,29.9603652 Z" id="Shape"></path>
                    <path d="M219.502378,58.4656604 L213.624405,58.4656604 L213.624405,1.45506999 L231.421601,1.45506999 C237.299574,1.45506999 241.938456,2.71660377 245.341875,5.23967133 C248.74348,7.7645283 250.443375,11.5759708 250.443375,16.6739988 C250.443375,20.6464881 249.177071,23.9891053 246.646277,26.7000609 C244.115483,29.4110164 240.454449,30.9821181 235.666804,31.409787 L252.321061,58.4656604 L245.136872,58.4656604 L229.299,31.973451 L219.502378,31.973451 C219.504193,31.973451 219.504193,58.4656604 219.502378,58.4656604 Z M219.502378,26.6589044 L229.952108,26.6589044 C232.564541,26.6589044 234.78148,26.390493 236.60474,25.8536701 C238.428,25.3186366 239.88298,24.6064516 240.973307,23.7206939 C242.061821,22.8349361 242.850993,21.7881315 243.340824,20.58028 C243.830655,19.3724285 244.075571,18.0715277 244.075571,16.6739988 C244.075571,15.3319416 243.830655,14.0578819 243.340824,12.848241 C242.850993,11.6403895 242.060007,10.581059 240.973307,9.66846013 C239.88298,8.75586123 238.428,8.04546561 236.60474,7.53548387 C234.78148,7.02550213 232.562726,6.76961656 229.952108,6.76961656 L219.502378,6.76961656 L219.502378,26.6589044 Z" id="Shape"></path>
                    <polygon id="Shape" points="280.15798 53.1511138 311.098976 53.1511138 311.098976 58.4656604 274.280007 58.4656604 274.280007 1.45506999 310.119314 1.45506999 310.119314 6.76961656 280.15798 6.76961656 280.15798 26.1757638 308.15999 26.1757638 308.15999 31.4903104 280.15798 31.4903104"></polygon>
                    <polygon id="Shape" points="340.815395 53.1511138 367.756105 53.1511138 367.756105 58.4656604 334.937422 58.4656604 334.937422 1.45506999 340.815395 1.45506999"></polygon>
                    <polygon id="Shape" points="393.880429 58.4656604 388.002456 58.4656604 388.002456 1.45506999 393.880429 1.45506999"></polygon>
                    <polygon id="Shape" points="463.59972 49.7691296 463.762997 49.7691296 463.762997 1.45506999 469.64097 1.45506999 469.64097 58.4656604 462.291689 58.4656604 427.842051 9.66846013 427.676959 9.66846013 427.676959 58.4656604 421.800801 58.4656604 421.800801 1.45506999 429.148267 1.45506999"></polygon>
                    <polygon id="Shape" points="503.4375 53.1511138 534.380311 53.1511138 534.380311 58.4656604 497.561341 58.4656604 497.561341 1.45506999 533.400649 1.45506999 533.400649 6.76961656 503.4375 6.76961656 503.4375 26.1757638 531.441324 26.1757638 531.441324 31.4903104 503.4375 31.4903104"></polygon>
                </g>
                <g id="Group" transform="translate(1.000000, 74.763441)">
                    <path d="M0.732550676,1.03265165 L5.55829392,1.03265165 C6.30936824,1.03265165 7.02597297,1.10422804 7.70810811,1.24738081 C8.38842905,1.39232299 8.99436824,1.63389328 9.5222973,1.9720917 C10.0520405,2.31207953 10.4729324,2.76480016 10.7867872,3.33383242 C11.1006419,3.89928586 11.2584764,4.59894502 11.2584764,5.43102049 C11.2584764,6.30604179 11.0897568,7.0325421 10.7523176,7.60694258 C10.4148784,8.18134307 9.98310135,8.6340637 9.4551723,8.96689389 C8.92542905,9.29972408 8.34851689,9.53234733 7.71899324,9.67013187 C7.08946959,9.806127 6.49260135,9.87412457 5.92657432,9.87412457 L2.66284797,9.87412457 L2.66284797,17.0818665 L0.732550676,17.0818665 L0.732550676,1.03265165 L0.732550676,1.03265165 Z M2.66284797,8.10439846 L5.92657432,8.10439846 C6.89172297,8.10439846 7.67726689,7.8896693 8.28139189,7.45842159 C8.88551689,7.02896328 9.18848649,6.35972408 9.18848649,5.45428282 C9.18848649,4.54705214 8.88551689,3.87781294 8.28139189,3.44835464 C7.67726689,3.01710692 6.89172297,2.80237776 5.92657432,2.80237776 L2.66284797,2.80237776 L2.66284797,8.10439846 Z" id="Shape"></path>
                    <path d="M18.9560811,1.03265165 L29.1826655,1.03265165 L29.1826655,2.80058835 L20.8863784,2.80058835 L20.8863784,7.83419761 L28.631152,7.83419761 L28.631152,9.6003449 L20.8863784,9.6003449 L20.8863784,15.3121404 L29.5963007,15.3121404 L29.5963007,17.0800771 L18.9560811,17.0800771 L18.9560811,1.03265165 Z" id="Shape"></path>
                    <path d="M37.1796115,1.03265165 L41.3395473,1.03265165 C42.1214628,1.03265165 42.8979358,1.07738689 43.6725946,1.16864678 C44.4454392,1.25990667 45.1402736,1.45495232 45.7516554,1.75736255 C46.3630372,2.05977277 46.8619392,2.50175695 47.2447331,3.08331507 C47.627527,3.6648732 47.8198311,4.45579225 47.8198311,5.45249341 C47.8198311,6.62992493 47.4588074,7.58189085 46.7403885,8.30839115 C46.0201554,9.03310205 45.0241655,9.49476973 43.7524189,9.68981538 L48.3713446,17.0800771 L46.0038277,17.0800771 L41.5917196,9.87233516 L39.1099088,9.87233516 L39.1099088,17.0800771 L37.1796115,17.0800771 L37.1796115,1.03265165 L37.1796115,1.03265165 Z M39.1099088,8.10439846 L40.8333885,8.10439846 C41.3685743,8.10439846 41.9255304,8.09008318 42.4988142,8.05966322 C43.0739122,8.02924325 43.6018412,7.93261513 44.0844155,7.76620004 C44.5669899,7.59978495 44.9642973,7.33853114 45.2799662,6.98243863 C45.5938209,6.62813552 45.7516554,6.11815378 45.7516554,5.45428282 C45.7516554,4.87988233 45.6373615,4.41821465 45.4069595,4.07106918 C45.1765574,3.72392372 44.875402,3.45551227 44.4998649,3.26762426 C44.1243277,3.07973625 43.7034358,2.95268817 43.235375,2.89363765 C42.7673142,2.83279773 42.295625,2.80237776 41.8221216,2.80237776 L39.1099088,2.80237776 C39.1099088,2.80237776 39.1099088,8.10439846 39.1099088,8.10439846 Z" id="Shape"></path>
                    <polygon id="Shape" points="55.8185912 1.03265165 57.7488885 1.03265165 57.7488885 17.0818665 55.8185912 17.0818665"></polygon>
                    <path d="M73.9514122,17.4916413 C72.7105068,17.4916413 71.5730101,17.280491 70.5389223,16.8581903 C69.5048345,16.4358896 68.608625,15.8507527 67.8502939,15.1027795 C67.0919628,14.3548062 66.5023514,13.4636803 66.0814595,12.4276121 C65.6605676,11.3933333 65.4483074,10.2713735 65.4483074,9.0617326 C65.4483074,7.8520917 65.6587534,6.73013187 66.0814595,5.69585311 C66.5023514,4.65978495 67.0919628,3.76865896 67.8502939,3.02068574 C68.608625,2.27271252 69.5048345,1.68757557 70.5389223,1.2652749 C71.5730101,0.842974234 72.7105068,0.631823899 73.9514122,0.631823899 C75.1923176,0.631823899 76.3316284,0.842974234 77.363902,1.2652749 C78.3961757,1.68757557 79.2941993,2.27271252 80.0525304,3.02068574 C80.8108615,3.76865896 81.400473,4.65978495 81.8231791,5.69585311 C82.2440709,6.73013187 82.4563311,7.8520917 82.4563311,9.0617326 C82.4563311,10.2713735 82.2458851,11.3933333 81.8231791,12.4276121 C81.4022872,13.4636803 80.8126757,14.3548062 80.0525304,15.1027795 C79.2941993,15.8507527 78.3979899,16.4358896 77.363902,16.8581903 C76.328,17.2787016 75.1905034,17.4916413 73.9514122,17.4916413 Z M73.9514122,15.7219152 C74.9020473,15.7219152 75.7710439,15.5465531 76.5602162,15.1994076 C77.3493885,14.8540515 78.0278953,14.3762792 78.5939223,13.7714587 C79.1599493,13.1666383 79.6007973,12.4616109 79.9164662,11.6510083 C80.2303209,10.8439846 80.3881554,9.97791033 80.3881554,9.05636437 C80.3881554,8.13481842 80.2303209,7.26874417 79.9164662,6.46172043 C79.6026115,5.65290728 79.1617635,4.94609048 78.5939223,4.34127003 C78.0260811,3.73644958 77.3493885,3.26046663 76.5602162,2.91332116 C75.7710439,2.56617569 74.9020473,2.39081355 73.9514122,2.39081355 C73.0025912,2.39081355 72.1317804,2.56617569 71.3426081,2.91332116 C70.5534358,3.26046663 69.8749291,3.73644958 69.308902,4.34127003 C68.742875,4.94609048 68.3002128,5.65111787 67.9863581,6.46172043 C67.6725034,7.26874417 67.5146689,8.13660783 67.5146689,9.05636437 C67.5146689,9.97969974 67.6706892,10.8439846 67.9863581,11.6510083 C68.3002128,12.4598215 68.7410608,13.1666383 69.308902,13.7714587 C69.8767432,14.3762792 70.5534358,14.8522621 71.3426081,15.1994076 C72.1299662,15.5483425 73.000777,15.7219152 73.9514122,15.7219152 Z" id="Shape"></path>
                    <path d="M89.8545946,1.03265165 L96.1044764,1.03265165 C96.6414764,1.03265165 97.2075034,1.09349158 97.8061858,1.21517143 C98.4048682,1.33506188 98.9981081,1.52831812 99.5877196,1.79315074 C100.177331,2.05619395 100.745172,2.40155001 101.289429,2.82385068 C101.831872,3.24615135 102.310818,3.75613309 102.726267,4.35200649 C103.139902,4.9496693 103.470084,5.63859201 103.715,6.41519578 C103.959916,7.19358896 104.08328,8.07397849 104.08328,9.05636437 C104.08328,10.0387503 103.959916,10.9191398 103.715,11.697533 C103.470084,12.4777156 103.139902,13.1630594 102.726267,13.7607223 C102.312632,14.3565957 101.833686,14.8665774 101.289429,15.2888781 C100.745172,15.7111787 100.177331,16.0565348 99.5877196,16.319578 C98.9981081,16.5844106 98.4048682,16.7776669 97.8061858,16.8975573 C97.2093176,17.0192372 96.6414764,17.0800771 96.1044764,17.0800771 L89.8545946,17.0800771 L89.8545946,1.03265165 Z M91.7848919,15.3139298 L95.4622534,15.3139298 C96.3965608,15.3139298 97.2619291,15.1940394 98.0601723,14.9524691 C98.8566014,14.7091094 99.5459932,14.3351227 100.128348,13.8305092 C100.710703,13.3241063 101.169693,12.67634 101.507132,11.8907892 C101.844571,11.1070278 102.013291,10.1604301 102.013291,9.05815378 C102.013291,7.95587746 101.844571,7.00927977 101.507132,6.22551836 C101.169693,5.43996754 100.710703,4.79220126 100.128348,4.28579834 C99.5459932,3.78118482 98.8566014,3.40719821 98.0601723,3.16383851 C97.2637432,2.92226821 96.3965608,2.80237776 95.4622534,2.80237776 L91.7848919,2.80237776 L91.7848919,15.3139298 Z" id="Shape"></path>
                    <path d="M119.338797,17.4916413 C118.097892,17.4916413 116.960395,17.280491 115.926307,16.8581903 C114.89222,16.4358896 113.99601,15.8507527 113.237679,15.1027795 C112.479348,14.3548062 111.889736,13.4636803 111.468845,12.4276121 C111.047953,11.3933333 110.835693,10.2713735 110.835693,9.0617326 C110.835693,7.8520917 111.046139,6.73013187 111.468845,5.69585311 C111.889736,4.65978495 112.479348,3.76865896 113.237679,3.02068574 C113.99601,2.27271252 114.89222,1.68757557 115.926307,1.2652749 C116.960395,0.842974234 118.097892,0.631823899 119.338797,0.631823899 C120.579703,0.631823899 121.719014,0.842974234 122.751287,1.2652749 C123.783561,1.68757557 124.681584,2.27271252 125.439916,3.02068574 C126.198247,3.76865896 126.787858,4.65978495 127.210564,5.69585311 C127.631456,6.73013187 127.843716,7.8520917 127.843716,9.0617326 C127.843716,10.2713735 127.63327,11.3933333 127.210564,12.4276121 C126.789672,13.4636803 126.200061,14.3548062 125.439916,15.1027795 C124.681584,15.8507527 123.785375,16.4358896 122.751287,16.8581903 C121.717199,17.280491 120.579703,17.4916413 119.338797,17.4916413 Z M119.338797,15.7219152 C120.289432,15.7219152 121.158429,15.5465531 121.947601,15.1994076 C122.736774,14.8540515 123.41528,14.3762792 123.981307,13.7714587 C124.547334,13.1666383 124.988182,12.4616109 125.303851,11.6510083 C125.617706,10.8439846 125.775541,9.97791033 125.775541,9.05636437 C125.775541,8.13481842 125.617706,7.26874417 125.303851,6.46172043 C124.989997,5.65290728 124.549149,4.94609048 123.981307,4.34127003 C123.413466,3.73644958 122.736774,3.26046663 121.947601,2.91332116 C121.158429,2.56617569 120.289432,2.39081355 119.338797,2.39081355 C118.389976,2.39081355 117.519166,2.56617569 116.729993,2.91332116 C115.940821,3.26046663 115.262314,3.73644958 114.696287,4.34127003 C114.13026,4.94609048 113.687598,5.65111787 113.373743,6.46172043 C113.059889,7.26874417 112.902054,8.13660783 112.902054,9.05636437 C112.902054,9.97969974 113.058074,10.8439846 113.373743,11.6510083 C113.687598,12.4598215 114.128446,13.1666383 114.696287,13.7714587 C115.264128,14.3762792 115.940821,14.8522621 116.729993,15.1994076 C117.519166,15.5483425 118.389976,15.7219152 119.338797,15.7219152 Z" id="Shape"></path>
                    <polygon id="Shape" points="135.541321 1.03265165 137.977777 1.03265165 147.400676 14.3601745 147.44603 14.3601745 147.44603 1.03265165 149.376328 1.03265165 149.376328 17.0818665 146.939872 17.0818665 137.516973 3.75434368 137.471618 3.75434368 137.471618 17.0818665 135.541321 17.0818665"></polygon>
                    <polygon id="Shape" points="168.933287 2.80237776 163.55603 2.80237776 163.55603 17.0818665 161.625733 17.0818665 161.625733 2.80237776 156.248476 2.80237776 156.248476 1.03444106 168.935101 1.03444106"></polygon>
                    <polygon id="Shape" points="175.805436 1.03265165 177.735733 1.03265165 177.735733 17.0818665 175.805436 17.0818665"></polygon>
                    <path d="M197.775267,4.34305944 C197.283622,3.69350375 196.679497,3.20499493 195.959264,2.88111179 C195.23903,2.55722865 194.487956,2.39439237 193.707855,2.39439237 C192.802574,2.39439237 191.971676,2.57691215 191.213345,2.9401623 C190.455014,3.30162305 189.800091,3.79013187 189.248578,4.40032055 C188.697064,5.01408805 188.267101,5.72269426 187.962318,6.53150741 C187.65572,7.33853114 187.503328,8.18313248 187.503328,9.05815378 C187.503328,9.99401501 187.65572,10.8690363 187.962318,11.6760601 C188.268916,12.4848732 188.693436,13.1881112 189.237693,13.785774 C189.781949,14.3816474 190.433243,14.8558409 191.191574,15.201197 C191.949905,15.5483425 192.788061,15.7237046 193.707855,15.7237046 C194.703845,15.7237046 195.592797,15.5304484 196.372899,15.1457253 C197.154814,14.7592128 197.836949,14.2062853 198.41749,13.4779955 L199.865213,14.6804788 C199.130466,15.6485494 198.245142,16.358945 197.211054,16.8098762 C196.176966,17.2643863 195.008628,17.4898519 193.706041,17.4898519 C192.541331,17.4898519 191.454632,17.2787016 190.442314,16.8564009 C189.431811,16.4341002 188.553743,15.8489633 187.809926,15.1009901 C187.066108,14.3530168 186.485568,13.4654697 186.064676,12.4383485 C185.643784,11.4112274 185.431524,10.2838994 185.431524,9.05994319 C185.431524,7.88072226 185.634713,6.77844593 186.041091,5.7495354 C186.44747,4.72241428 187.017125,3.83128829 187.753686,3.07436803 C188.488432,2.31923717 189.362872,1.72336377 190.373375,1.28495841 C191.385693,0.846553053 192.494162,0.62824508 193.706041,0.62824508 C194.809068,0.62824508 195.870368,0.823290728 196.888128,1.21696084 C197.905889,1.61063096 198.762186,2.2512396 199.451578,3.14236559 L197.775267,4.34305944 Z" id="Shape"></path>
                    <path d="M214.872186,3.86528708 C214.551074,3.35351593 214.121111,2.97952932 213.585926,2.74332725 C213.05074,2.50891459 212.490155,2.39260296 211.907801,2.39260296 C211.479652,2.39260296 211.056946,2.44628525 210.643311,2.55186042 C210.229676,2.65922499 209.857767,2.81669304 209.529399,3.02963279 C209.20103,3.24257253 208.936159,3.51993102 208.736598,3.86707649 C208.537037,4.21601136 208.437257,4.62399675 208.437257,5.09282207 C208.437257,5.45607223 208.495311,5.77637655 208.609605,6.05552445 C208.723899,6.33467235 208.912574,6.58876851 209.173818,6.81602353 C209.435061,7.04327856 209.787014,7.25442889 210.23149,7.44947454 C210.675966,7.6463096 211.220223,7.84314465 211.862446,8.0381903 C212.490155,8.23502536 213.099723,8.4479651 213.689334,8.67164131 C214.278946,8.89889633 214.799618,9.18699128 215.251351,9.53234733 C215.703084,9.8794928 216.064108,10.3161087 216.330794,10.8368269 C216.599294,11.3593346 216.733544,12.0124691 216.733544,12.7980199 C216.733544,13.5996754 216.573895,14.2939663 216.25097,14.8844715 C215.928044,15.4731873 215.503524,15.9616961 214.975595,16.3446297 C214.445851,16.7311422 213.838098,17.0174478 213.148706,17.2053358 C212.459314,17.3932238 211.748152,17.4880625 211.011591,17.4880625 C210.536274,17.4880625 210.060956,17.4486955 209.585639,17.3645932 C209.110321,17.2822804 208.654959,17.1534429 208.21774,16.9798702 C207.78052,16.804508 207.372328,16.5790424 206.98772,16.2981051 C206.604926,16.0207466 206.274743,15.6753905 206.000801,15.2674052 L207.655341,13.9307162 C208.007294,14.5194319 208.497125,14.9649949 209.126649,15.2674052 C209.756172,15.5698154 210.42198,15.7219152 211.125885,15.7219152 C211.53952,15.7219152 211.956784,15.6610753 212.377676,15.5393954 C212.798568,15.4177156 213.177733,15.240564 213.515172,15.0061513 C213.852611,14.7717387 214.128368,14.4818543 214.342443,14.1347089 C214.556517,13.7875634 214.665368,13.3867356 214.665368,12.9322256 C214.665368,12.4347697 214.580101,12.0303632 214.411382,11.7190059 C214.242662,11.409438 213.983233,11.1410266 213.629466,10.915561 C213.277514,10.6883059 212.833037,10.4843132 212.296037,10.3017935 C211.760851,10.1210631 211.131328,9.90991276 210.411095,9.66834246 C209.82874,9.48582268 209.29174,9.28004058 208.801909,9.04562792 C208.310264,8.81121526 207.885743,8.52312031 207.526534,8.18492189 C207.167324,7.84493406 206.884311,7.43694867 206.675679,6.9591763 C206.468861,6.48319335 206.365453,5.91237168 206.365453,5.24850071 C206.365453,4.47726517 206.517845,3.80444715 206.824443,3.23004666 C207.131041,2.65743559 207.544676,2.1760844 208.065348,1.79136133 C208.58602,1.40484885 209.175632,1.1149645 209.834182,0.918129438 C210.492733,0.72308379 211.182125,0.624666261 211.902358,0.624666261 C212.822152,0.624666261 213.660307,0.764240211 214.418639,1.0415987 C215.17697,1.32253601 215.855476,1.81104484 216.452345,2.50354636 L214.872186,3.86528708 Z" id="Shape"></path>
                    <path d="M244.909716,14.7699493 C244.251166,15.5859201 243.545446,16.2211605 242.794372,16.6738811 C242.043297,17.1266017 241.125318,17.3538568 240.036804,17.3538568 C239.347412,17.3538568 238.688861,17.250071 238.061152,17.0478677 C237.431628,16.843875 236.885557,16.5450436 236.417497,16.1513735 C235.949436,15.7577034 235.573899,15.279931 235.290885,14.7108988 C235.006057,14.1454453 234.866365,13.497679 234.866365,12.7729681 C234.866365,12.2146723 234.960703,11.6957436 235.153007,11.22155 C235.343497,10.7437776 235.60474,10.3143193 235.934922,9.92780686 C236.265105,9.54308379 236.647899,9.20309596 237.083304,8.90963279 C237.520524,8.6143802 237.983142,8.35312639 238.474787,8.12587137 C237.937787,7.59799554 237.478797,7.03969974 237.096003,6.44740515 C236.713209,5.85868939 236.52272,5.17871374 236.52272,4.40747819 C236.52272,3.81876243 236.637014,3.292676 236.867416,2.83100832 C237.096003,2.37113005 237.402601,1.98461757 237.785395,1.67504971 C238.168189,1.36548184 238.612666,1.12927977 239.118824,0.971811727 C239.624983,0.812554271 240.160169,0.732030838 240.72801,0.732030838 C241.279524,0.732030838 241.800196,0.808975451 242.290027,0.959285859 C242.781672,1.11138568 243.213449,1.33327247 243.588986,1.62852506 C243.964524,1.92198823 244.260236,2.29239602 244.474311,2.73795902 C244.688385,3.18531142 244.795422,3.7024508 244.795422,4.29116657 C244.795422,4.78862244 244.692014,5.2467113 244.485196,5.66364374 C244.278378,6.07878677 244.009878,6.44740515 243.68151,6.7730777 C243.353142,7.09875025 242.984861,7.39400284 242.578483,7.65704605 C242.172105,7.92187868 241.762098,8.15987016 241.348463,8.37102049 L244.795422,11.9748915 L246.979706,8.37102049 L249.162176,8.37102049 L246.036328,13.3133699 L249.759044,17.0764983 L247.11577,17.0764983 L244.909716,14.7699493 Z M239.670338,9.28540881 C239.318385,9.46613918 238.973689,9.66655305 238.63625,9.88486103 C238.298811,10.1049584 237.994027,10.3501075 237.71827,10.6220978 C237.442514,10.8940881 237.219368,11.2036559 237.050649,11.5525908 C236.881929,11.9015257 236.798476,12.2844593 236.798476,12.7085494 C236.798476,13.1469548 236.881929,13.5477825 237.050649,13.9110327 C237.219368,14.2742828 237.44977,14.5910083 237.740041,14.8629986 C238.030311,15.1331994 238.36775,15.3479286 238.750544,15.4964496 C239.133338,15.6485494 239.539716,15.7237046 239.967865,15.7237046 C240.3815,15.7237046 240.764294,15.6628647 241.116247,15.5411848 C241.468199,15.419505 241.794753,15.2584581 242.094095,15.0544654 C242.393436,14.8504727 242.676449,14.6160601 242.944949,14.3512274 C243.211635,14.0881842 243.476507,13.8036681 243.73775,13.4994685 L239.670338,9.28540881 Z M240.152912,7.22043011 C240.457696,7.05401501 240.773365,6.88223169 241.094476,6.69971191 C241.415588,6.51719213 241.707672,6.31319943 241.967101,6.08773382 C242.228345,5.8604788 242.442419,5.59743559 242.611139,5.29502536 C242.779858,4.99261513 242.863311,4.64546967 242.863311,4.25179955 C242.863311,3.66308379 242.660122,3.20141611 242.253743,2.87037533 C241.847365,2.53933455 241.361162,2.37113005 240.795135,2.37113005 C240.152912,2.37113005 239.599584,2.56438629 239.140595,2.94910935 C238.681605,3.33562183 238.451203,3.85991885 238.451203,4.52557922 C238.451203,4.96398458 238.569125,5.35228647 238.806784,5.69227429 C239.044443,6.03047271 239.300243,6.34540881 239.576,6.63171434 L240.152912,7.22043011 Z" id="Shape"></path>
                    <path d="M267.385706,1.03265165 L273.635588,1.03265165 C274.172588,1.03265165 274.738615,1.09349158 275.337297,1.21517143 C275.93598,1.33506188 276.52922,1.52831812 277.118831,1.79315074 C277.708443,2.05619395 278.276284,2.40155001 278.820541,2.82385068 C279.362983,3.24615135 279.841929,3.75613309 280.257378,4.35200649 C280.671014,4.9496693 281.001196,5.63859201 281.246111,6.41519578 C281.491027,7.19358896 281.614392,8.07397849 281.614392,9.05636437 C281.614392,10.0387503 281.491027,10.9191398 281.246111,11.697533 C281.001196,12.4777156 280.671014,13.1630594 280.257378,13.7607223 C279.843743,14.3565957 279.364797,14.8665774 278.820541,15.2888781 C278.276284,15.7111787 277.708443,16.0565348 277.118831,16.319578 C276.52922,16.5844106 275.93598,16.7776669 275.337297,16.8975573 C274.740429,17.0192372 274.172588,17.0800771 273.635588,17.0800771 L267.385706,17.0800771 L267.385706,1.03265165 Z M269.316003,15.3139298 L272.993365,15.3139298 C273.927672,15.3139298 274.793041,15.1940394 275.591284,14.9524691 C276.387713,14.7091094 277.077105,14.3351227 277.659459,13.8305092 C278.241814,13.3241063 278.700804,12.67634 279.038243,11.8907892 C279.375682,11.1070278 279.544402,10.1604301 279.544402,9.05815378 C279.544402,7.95587746 279.375682,7.00927977 279.038243,6.22551836 C278.700804,5.43996754 278.241814,4.79220126 277.659459,4.28579834 C277.077105,3.78118482 276.387713,3.40719821 275.591284,3.16383851 C274.794855,2.92226821 273.927672,2.80237776 272.993365,2.80237776 L269.316003,2.80237776 L269.316003,15.3139298 Z" id="Shape"></path>
                    <polygon id="Shape" points="289.310182 1.03265165 299.536767 1.03265165 299.536767 2.80058835 291.24048 2.80058835 291.24048 7.83419761 298.985253 7.83419761 298.985253 9.6003449 291.24048 9.6003449 291.24048 15.3121404 299.950402 15.3121404 299.950402 17.0800771 289.310182 17.0800771 289.310182 1.03265165"></polygon>
                    <polygon id="Shape" points="307.533713 1.03265165 309.970169 1.03265165 319.393068 14.3601745 319.438422 14.3601745 319.438422 1.03265165 321.36872 1.03265165 321.36872 17.0818665 318.932264 17.0818665 309.509365 3.75434368 309.46401 3.75434368 309.46401 17.0818665 307.533713 17.0818665"></polygon>
                    <polygon id="Shape" points="340.925679 2.80237776 335.548422 2.80237776 335.548422 17.0818665 333.618125 17.0818665 333.618125 2.80237776 328.240868 2.80237776 328.240868 1.03444106 340.927493 1.03444106"></polygon>
                    <path d="M350.96903,1.03265165 L352.785034,1.03265165 L359.702537,17.0818665 L357.449314,17.0818665 L355.794774,13.1380077 L347.659949,13.1380077 L345.981824,17.0818665 L343.799355,17.0818665 L350.96903,1.03265165 Z M351.84347,3.48056401 L351.798115,3.48056401 L348.420095,11.3682816 L355.061841,11.3682816 L351.84347,3.48056401 Z" id="Shape"></path>
                    <polygon id="Shape" points="366.458578 1.03265165 368.388875 1.03265165 368.388875 15.3121404 375.834307 15.3121404 375.834307 17.0800771 366.458578 17.0800771"></polygon>
                    <polygon id="Shape" points="393.531723 1.03265165 395.460206 1.03265165 395.460206 17.0818665 393.531723 17.0818665"></polygon>
                    <polygon id="Shape" points="404.103003 1.03265165 406.974865 1.03265165 412.49 13.6122013 412.535355 13.6122013 418.095845 1.03265165 420.900581 1.03265165 420.900581 17.0818665 418.970284 17.0818665 418.970284 3.61834855 418.924929 3.61834855 413.086868 17.0818665 411.914902 17.0818665 406.076841 3.61834855 406.031486 3.61834855 406.031486 17.0818665 404.103003 17.0818665 404.103003 1.03265165"></polygon>
                    <path d="M429.543378,1.03265165 L434.369122,1.03265165 C435.118382,1.03265165 435.836801,1.10422804 436.517122,1.24738081 C437.199257,1.39232299 437.805196,1.63389328 438.333125,1.9720917 C438.862868,2.31207953 439.281946,2.76480016 439.597615,3.33383242 C439.91147,3.89928586 440.069304,4.59894502 440.069304,5.43102049 C440.069304,6.30604179 439.89877,7.0325421 439.563145,7.60694258 C439.22752,8.18134307 438.793929,8.6340637 438.264186,8.96689389 C437.736257,9.29972408 437.15753,9.53234733 436.529821,9.67013187 C435.900297,9.806127 435.303429,9.87412457 434.737402,9.87412457 L431.473676,9.87412457 L431.473676,17.0818665 L429.545193,17.0818665 L429.543378,1.03265165 L429.543378,1.03265165 L429.543378,1.03265165 Z M431.47549,8.10439846 L434.739216,8.10439846 C435.704365,8.10439846 436.489909,7.8896693 437.095848,7.45842159 C437.699973,7.02896328 438.002943,6.35972408 438.002943,5.45428282 C438.002943,4.54705214 437.699973,3.87781294 437.095848,3.44835464 C436.489909,3.01710692 435.704365,2.80237776 434.739216,2.80237776 L431.47549,2.80237776 L431.47549,8.10439846 Z" id="Shape"></path>
                    <polygon id="Shape" points="447.766909 1.03265165 449.695392 1.03265165 449.695392 15.3121404 457.140824 15.3121404 457.140824 17.0800771 447.765095 17.0800771 447.766909 1.03265165"></polygon>
                    <path d="M469.139872,1.03265165 L470.955875,1.03265165 L477.871564,17.0818665 L475.620155,17.0818665 L473.965615,13.1380077 L465.830791,13.1380077 L464.152666,17.0818665 L461.970196,17.0818665 L469.139872,1.03265165 Z M470.014311,3.48056401 L469.968956,3.48056401 L466.590936,11.3682816 L473.232682,11.3682816 L470.014311,3.48056401 Z" id="Shape"></path>
                    <polygon id="Shape" points="484.631233 1.03265165 487.067689 1.03265165 496.488774 14.3601745 496.534128 14.3601745 496.534128 1.03265165 498.462611 1.03265165 498.462611 17.0818665 496.026155 17.0818665 486.605071 3.75434368 486.559716 3.75434368 486.559716 17.0818665 484.631233 17.0818665"></polygon>
                    <polygon id="Shape" points="518.021385 2.80237776 512.644128 2.80237776 512.644128 17.0818665 510.713831 17.0818665 510.713831 2.80237776 505.336574 2.80237776 505.336574 1.03444106 518.021385 1.03444106 518.021385 2.80237776"></polygon>
                    <path d="M532.616537,3.86528708 C532.293611,3.35351593 531.865463,2.97952932 531.330277,2.74332725 C530.793277,2.50891459 530.234507,2.39260296 529.652152,2.39260296 C529.222189,2.39260296 528.801297,2.44628525 528.387662,2.55186042 C527.974027,2.65922499 527.602118,2.81669304 527.27375,3.02963279 C526.945382,3.24257253 526.68051,3.51993102 526.480949,3.86707649 C526.281389,4.21601136 526.181608,4.62399675 526.181608,5.09282207 C526.181608,5.45607223 526.237848,5.77637655 526.353956,6.05552445 C526.470064,6.33467235 526.656926,6.58876851 526.918169,6.81602353 C527.179412,7.04327856 527.531365,7.25442889 527.975841,7.44947454 C528.418503,7.6463096 528.964574,7.84314465 529.606797,8.0381903 C530.234507,8.23502536 530.844074,8.4479651 531.433686,8.67164131 C532.023297,8.89889633 532.54397,9.18699128 532.995703,9.53234733 C533.447436,9.8794928 533.806645,10.3161087 534.076959,10.8368269 C534.343645,11.3593346 534.479709,12.0124691 534.479709,12.7980199 C534.479709,13.5996754 534.318247,14.2939663 533.995321,14.8844715 C533.674209,15.4731873 533.249689,15.9616961 532.719946,16.3446297 C532.192017,16.7311422 531.582449,17.0174478 530.893057,17.2053358 C530.203666,17.3932238 529.492503,17.4880625 528.755943,17.4880625 C528.280625,17.4880625 527.805307,17.4486955 527.331804,17.3645932 C526.854672,17.2822804 526.399311,17.1534429 525.963905,16.9798702 C525.526686,16.804508 525.116679,16.5790424 524.733885,16.2981051 C524.349277,16.0207466 524.020909,15.6753905 523.745152,15.2674052 L525.399693,13.9307162 C525.751645,14.5194319 526.241476,14.9649949 526.871,15.2674052 C527.500524,15.5698154 528.166331,15.7219152 528.872051,15.7219152 C529.285686,15.7219152 529.702949,15.6610753 530.123841,15.5393954 C530.542919,15.419505 530.922084,15.240564 531.261338,15.0061513 C531.598777,14.7717387 531.87272,14.4818543 532.088608,14.1347089 C532.302682,13.7875634 532.40972,13.3867356 532.40972,12.9322256 C532.40972,12.4347697 532.326267,12.0303632 532.157547,11.7190059 C531.987014,11.409438 531.727584,11.1410266 531.375632,10.915561 C531.023679,10.6883059 530.579203,10.4843132 530.042203,10.3017935 C529.505203,10.1210631 528.877493,9.90991276 528.15726,9.66834246 C527.57672,9.48582268 527.03972,9.28004058 526.548074,9.04562792 C526.058243,8.81121526 525.633723,8.52312031 525.274514,8.18492189 C524.91349,7.84493406 524.630476,7.43694867 524.423659,6.9591763 C524.216841,6.48319335 524.111618,5.91237168 524.111618,5.24850071 C524.111618,4.47726517 524.265824,3.80444715 524.572422,3.23004666 C524.87902,2.65743559 525.290841,2.1760844 525.813328,1.79136133 C526.334,1.40484885 526.923611,1.1149645 527.583976,0.918129438 C528.242527,0.72308379 528.931919,0.624666261 529.653966,0.624666261 C530.57376,0.624666261 531.411916,0.764240211 532.170247,1.0415987 C532.928578,1.32253601 533.607084,1.81104484 534.203953,2.50354636 L532.616537,3.86528708 Z" id="Shape"></path>
                </g>
            </g>
        </g>
    </g>
</svg>