<?xml version="1.0" encoding="UTF-8"?>
<svg width="170px" height="30px" viewBox="0 0 170 30" version="1.1" xmlns="http://www.w3.org/2000/svg" xmlns:xlink="http://www.w3.org/1999/xlink">
    <!-- Generator: Sketch 42 (36781) - http://www.bohemiancoding.com/sketch -->
    <title>logo-white</title>
    <desc>Created with Sketch.</desc>
    <defs></defs>
    <g id="Page-1" stroke="none" stroke-width="1" fill="none" fill-rule="evenodd">
        <g id="logo-white">
            <g id="Layer_1">
                <g id="Group-2" fill="#3F9EBE">
                    <path d="M10.0725,3.75679245 C9.26212838,2.58509434 8.08246622,1.99924528 6.53179054,1.99924528 C6.04935811,1.99924528 5.57554054,2.06320755 5.11033784,2.19056604 C4.64513514,2.31792453 4.22702703,2.51320755 3.85658784,2.77641509 C3.48614865,3.04018868 3.18864865,3.37924528 2.96523649,3.79528302 C2.74125,4.21132075 2.62925676,4.69924528 2.62925676,5.25962264 C2.62925676,6.07471698 2.86185811,6.70754717 3.32706081,7.15754717 C3.79226351,7.60754717 4.36945946,7.97716981 5.05864865,8.26584906 C5.74783784,8.5545283 6.50135135,8.81320755 7.32033784,9.04301887 C8.13817568,9.27226415 8.89226351,9.57792453 9.58202703,9.96 C10.2712162,10.3420755 10.8484122,10.8475472 11.3136149,11.4758491 C11.7788176,12.1041509 12.0114189,12.9616981 12.0114189,14.0484906 C12.0114189,14.8635849 11.834527,15.5983019 11.4818919,16.2520755 C11.1286824,16.9058491 10.6634797,17.4537736 10.0862838,17.894717 C9.50908784,18.3367925 8.86297297,18.6758491 8.14793919,18.9135849 C7.43290541,19.1507547 6.71327703,19.2701887 5.9902027,19.2701887 C4.86969595,19.2701887 3.8060473,19.0618868 2.79810811,18.6458491 C1.79016892,18.2298113 0.932702703,17.5466038 0.226283784,16.5950943 L1.93202703,15.3979245 C2.32716216,16.0601887 2.87679054,16.5911321 3.58091216,16.9896226 C4.28503378,17.3886792 5.11780405,17.5879245 6.0797973,17.5879245 C6.54327703,17.5879245 7.00733108,17.5160377 7.47081081,17.3716981 C7.93429054,17.2279245 8.35125,17.0150943 8.71996622,16.7349057 C9.08868243,16.454717 9.39364865,16.110566 9.63486486,15.7030189 C9.87493243,15.2954717 9.99496622,14.8290566 9.99496622,14.3020755 C9.99496622,13.6737736 9.86172297,13.1518868 9.59466216,12.735283 C9.32760135,12.3192453 8.97439189,11.9711321 8.53503378,11.6909434 C8.09567568,11.4107547 7.59601351,11.1775472 7.0360473,10.9907547 C6.47608108,10.8039623 5.89888514,10.6171698 5.30445946,10.4303774 C4.71003378,10.2435849 4.13283784,10.0313208 3.57287162,9.79358491 C3.01233108,9.55641509 2.51324324,9.25471698 2.07388514,8.88962264 C1.63452703,8.5245283 1.28131757,8.06603774 1.01425676,7.51415094 C0.747195946,6.96226415 0.613378378,6.27056604 0.613378378,5.43849057 C0.613378378,4.57245283 0.781081081,3.81679245 1.11763514,3.17150943 C1.45361486,2.52622642 1.90158784,1.99132075 2.46155405,1.56679245 C3.02152027,1.14226415 3.65442568,0.828113208 4.36141892,0.624339623 C5.06726351,0.420566038 5.79148649,0.318679245 6.53236486,0.318679245 C7.56614865,0.318679245 8.50516892,0.48 9.34942568,0.802641509 C10.1936824,1.12528302 10.9776351,1.69415094 11.7012838,2.50924528 L10.0725,3.75679245 Z" id="Shape"></path>
                    <polygon id="Shape" points="19.6602703 0.776603774 21.5210811 0.776603774 21.5210811 8.59641509 31.4970946 8.59641509 31.4970946 0.776603774 33.3579054 0.776603774 33.3579054 18.810566 31.4970946 18.810566 31.4970946 10.2775472 21.5210811 10.2775472 21.5210811 18.810566 19.6602703 18.810566"></polygon>
                    <path d="M60.029527,9.79358491 C60.029527,11.1690566 59.7883108,12.434717 59.3058784,13.5888679 C58.8234459,14.7441509 58.1560811,15.7415094 57.3032095,16.5820755 C56.4503378,17.4226415 55.4423986,18.0809434 54.2793919,18.5558491 C53.1163851,19.0313208 51.8540203,19.2690566 50.4934459,19.2690566 C49.131723,19.2690566 47.8699324,19.0313208 46.7069257,18.5558491 C45.5439189,18.0809434 44.5359797,17.4226415 43.6831081,16.5820755 C42.8302365,15.7415094 42.1622973,14.7441509 41.6798649,13.5888679 C41.1974324,12.4341509 40.9562162,11.1690566 40.9562162,9.79358491 C40.9562162,8.41811321 41.1968581,7.15301887 41.6798649,5.99830189 C42.1622973,4.84358491 42.8296622,3.84566038 43.6831081,3.00509434 C44.5359797,2.1645283 45.5439189,1.50679245 46.7069257,1.03075472 C47.8699324,0.555849057 49.131723,0.31754717 50.4934459,0.31754717 C51.8545946,0.31754717 53.1163851,0.555283019 54.2793919,1.03075472 C55.4423986,1.50622642 56.4503378,2.16396226 57.3032095,3.00509434 C58.1560811,3.84566038 58.8234459,4.84358491 59.3058784,5.99830189 C59.7883108,7.15358491 60.029527,8.41811321 60.029527,9.79358491 Z M58.0136486,9.79358491 C58.0136486,8.75773585 57.8413514,7.76886792 57.4967568,6.82641509 C57.1515878,5.88396226 56.6570946,5.05641509 56.0109797,4.34264151 C55.3648649,3.62943396 54.5763176,3.06056604 53.6459122,2.63603774 C52.7155068,2.21150943 51.6644932,1.99924528 50.4928716,1.99924528 C49.3206757,1.99924528 48.2702365,2.21150943 47.3398311,2.63603774 C46.4094257,3.06056604 45.6214527,3.62943396 44.9753378,4.34264151 C44.329223,5.05584906 43.8335811,5.88396226 43.4889865,6.82641509 C43.1443919,7.76886792 42.9720946,8.75830189 42.9720946,9.79358491 C42.9720946,10.83 43.1443919,11.8188679 43.4889865,12.7613208 C43.8335811,13.7037736 44.329223,14.5313208 44.9753378,15.2450943 C45.6214527,15.9583019 46.4094257,16.5271698 47.3398311,16.9516981 C48.2702365,17.3762264 49.32125,17.5884906 50.4928716,17.5884906 C51.6644932,17.5884906 52.7155068,17.3762264 53.6459122,16.9516981 C54.5763176,16.5271698 55.3648649,15.9583019 56.0109797,15.2450943 C56.6570946,14.5318868 57.1521622,13.7037736 57.4967568,12.7613208 C57.840777,11.8188679 58.0136486,10.83 58.0136486,9.79358491 Z" id="Shape"></path>
                    <path d="M69.4886486,18.810566 L67.6278378,18.810566 L67.6278378,0.776603774 L73.2619595,0.776603774 C75.1227703,0.776603774 76.5913176,1.17566038 77.66875,1.97377358 C78.7456081,2.77245283 79.28375,3.97811321 79.28375,5.59075472 C79.28375,6.84735849 78.8828716,7.90471698 78.0816892,8.76226415 C77.2805068,9.61981132 76.1215203,10.1167925 74.6058784,10.2520755 L79.8781757,18.810566 L77.6038514,18.810566 L72.59,10.4303774 L69.4886486,10.4303774 C69.489223,10.4303774 69.489223,18.810566 69.4886486,18.810566 Z M69.4886486,8.74924528 L72.7967568,8.74924528 C73.6237838,8.74924528 74.3256081,8.66433962 74.9028041,8.4945283 C75.48,8.32528302 75.9406081,8.1 76.285777,7.81981132 C76.6303716,7.53962264 76.8802027,7.20849057 77.0352703,6.82641509 C77.1903378,6.44433962 77.2678716,6.03283019 77.2678716,5.59075472 C77.2678716,5.16622642 77.1903378,4.76320755 77.0352703,4.38056604 C76.8802027,3.99849057 76.6297973,3.66339623 76.285777,3.37471698 C75.9406081,3.08603774 75.48,2.86132075 74.9028041,2.7 C74.3256081,2.53867925 73.6232095,2.45773585 72.7967568,2.45773585 L69.4886486,2.45773585 L69.4886486,8.74924528 Z" id="Shape"></path>
                    <polygon id="Shape" points="88.6906081 17.129434 98.4857095 17.129434 98.4857095 18.810566 86.8297973 18.810566 86.8297973 0.776603774 98.1755743 0.776603774 98.1755743 2.45773585 88.6906081 2.45773585 88.6906081 8.59641509 97.5553041 8.59641509 97.5553041 10.2775472 88.6906081 10.2775472"></polygon>
                    <polygon id="Shape" points="107.893142 17.129434 116.421858 17.129434 116.421858 18.810566 106.032331 18.810566 106.032331 0.776603774 107.893142 0.776603774"></polygon>
                    <polygon id="Shape" points="124.692128 18.810566 122.831318 18.810566 122.831318 0.776603774 124.692128 0.776603774"></polygon>
                    <polygon id="Shape" points="146.763412 16.0596226 146.815101 16.0596226 146.815101 0.776603774 148.675912 0.776603774 148.675912 18.810566 146.349324 18.810566 135.44348 3.37471698 135.391216 3.37471698 135.391216 18.810566 133.53098 18.810566 133.53098 0.776603774 135.856993 0.776603774"></polygon>
                    <polygon id="Shape" points="159.375 17.129434 169.170676 17.129434 169.170676 18.810566 157.514764 18.810566 157.514764 0.776603774 168.860541 0.776603774 168.860541 2.45773585 159.375 2.45773585 159.375 8.59641509 168.24027 8.59641509 168.24027 10.2775472 159.375 10.2775472"></polygon>
                </g>
                <g id="Group" transform="translate(0.000000, 23.333333)" fill="#2D3F55">
                    <path d="M0.54847973,0.959308176 L2.07618243,0.959308176 C2.3139527,0.959308176 2.54081081,0.981949686 2.75675676,1.0272327 C2.97212838,1.07308176 3.1639527,1.14949686 3.33108108,1.25647799 C3.49878378,1.36402516 3.63202703,1.5072327 3.73138514,1.6872327 C3.83074324,1.86610063 3.88070946,2.08742138 3.88070946,2.35062893 C3.88070946,2.62742138 3.8272973,2.8572327 3.72047297,3.03893082 C3.61364865,3.22062893 3.47695946,3.36383648 3.30983108,3.4691195 C3.14212838,3.57440252 2.95949324,3.64798742 2.7602027,3.69157233 C2.56091216,3.73459119 2.37195946,3.75610063 2.19277027,3.75610063 L1.15956081,3.75610063 L1.15956081,6.03610063 L0.54847973,6.03610063 L0.54847973,0.959308176 L0.54847973,0.959308176 Z M1.15956081,3.19628931 L2.19277027,3.19628931 C2.49831081,3.19628931 2.74699324,3.12836478 2.93824324,2.99194969 C3.12949324,2.85610063 3.22540541,2.64440252 3.22540541,2.35798742 C3.22540541,2.07100629 3.12949324,1.85930818 2.93824324,1.72345912 C2.74699324,1.58704403 2.49831081,1.5191195 2.19277027,1.5191195 L1.15956081,1.5191195 L1.15956081,3.19628931 Z" id="Shape"></path>
                    <path d="M6.31756757,0.959308176 L9.55503378,0.959308176 L9.55503378,1.51855346 L6.92864865,1.51855346 L6.92864865,3.11081761 L9.38043919,3.11081761 L9.38043919,3.66949686 L6.92864865,3.66949686 L6.92864865,5.47628931 L9.68597973,5.47628931 L9.68597973,6.03553459 L6.31756757,6.03553459 L6.31756757,0.959308176 Z" id="Shape"></path>
                    <path d="M12.0866554,0.959308176 L13.4035811,0.959308176 C13.6511149,0.959308176 13.8969257,0.973459119 14.1421622,1.00232704 C14.3868243,1.03119497 14.6067905,1.09289308 14.8003378,1.18855346 C14.9938851,1.28421384 15.1518243,1.42402516 15.2730068,1.60798742 C15.3941892,1.79194969 15.4550676,2.04213836 15.4550676,2.35742138 C15.4550676,2.72987421 15.340777,3.03100629 15.1133446,3.26081761 C14.8853378,3.49006289 14.5700338,3.63610063 14.1674324,3.69779874 L15.6296622,6.03553459 L14.8801689,6.03553459 L13.4834122,3.75553459 L12.6977365,3.75553459 L12.6977365,6.03553459 L12.0866554,6.03553459 L12.0866554,0.959308176 L12.0866554,0.959308176 Z M12.6977365,3.19628931 L13.2433446,3.19628931 C13.4127703,3.19628931 13.5890878,3.19176101 13.7705743,3.18213836 C13.9526351,3.17251572 14.1197635,3.14194969 14.2725338,3.08930818 C14.4253041,3.03666667 14.5510811,2.95402516 14.6510135,2.84138365 C14.7503716,2.72930818 14.8003378,2.56798742 14.8003378,2.35798742 C14.8003378,2.17628931 14.7641554,2.03025157 14.6912162,1.92044025 C14.618277,1.81062893 14.5229392,1.72572327 14.4040541,1.66628931 C14.2851689,1.60685535 14.1519257,1.56666667 14.00375,1.54798742 C13.8555743,1.52874214 13.70625,1.5191195 13.5563514,1.5191195 L12.6977365,1.5191195 C12.6977365,1.5191195 12.6977365,3.19628931 12.6977365,3.19628931 Z" id="Shape"></path>
                    <polygon id="Shape" points="17.9872635 0.959308176 18.5983446 0.959308176 18.5983446 6.03610063 17.9872635 6.03610063"></polygon>
                    <path d="M23.7276351,6.16572327 C23.3347973,6.16572327 22.9746959,6.09893082 22.6473311,5.96534591 C22.3199662,5.83176101 22.03625,5.64666667 21.7961824,5.41006289 C21.5561149,5.17345912 21.3694595,4.89157233 21.2362162,4.56383648 C21.102973,4.23666667 21.035777,3.88176101 21.035777,3.4991195 C21.035777,3.11647799 21.1023986,2.76157233 21.2362162,2.43440252 C21.3694595,2.10666667 21.5561149,1.82477987 21.7961824,1.5881761 C22.03625,1.35157233 22.3199662,1.16647799 22.6473311,1.03289308 C22.9746959,0.899308176 23.3347973,0.832515723 23.7276351,0.832515723 C24.120473,0.832515723 24.4811486,0.899308176 24.8079392,1.03289308 C25.1347297,1.16647799 25.4190203,1.35157233 25.6590878,1.5881761 C25.8991554,1.82477987 26.0858108,2.10666667 26.2196284,2.43440252 C26.3528716,2.76157233 26.4200676,3.11647799 26.4200676,3.4991195 C26.4200676,3.88176101 26.3534459,4.23666667 26.2196284,4.56383648 C26.0863851,4.89157233 25.8997297,5.17345912 25.6590878,5.41006289 C25.4190203,5.64666667 25.1353041,5.83176101 24.8079392,5.96534591 C24.48,6.09836478 24.1198986,6.16572327 23.7276351,6.16572327 Z M23.7276351,5.60591195 C24.0285811,5.60591195 24.3036824,5.55044025 24.5535135,5.44062893 C24.8033446,5.33138365 25.0181419,5.18025157 25.1973311,4.98893082 C25.3765203,4.79761006 25.5160811,4.57459119 25.6160135,4.3181761 C25.7153716,4.06289308 25.7653378,3.78893082 25.7653378,3.49742138 C25.7653378,3.20591195 25.7153716,2.93194969 25.6160135,2.67666667 C25.5166554,2.42081761 25.3770946,2.1972327 25.1973311,2.00591195 C25.0175676,1.81459119 24.8033446,1.66402516 24.5535135,1.55421384 C24.3036824,1.44440252 24.0285811,1.38893082 23.7276351,1.38893082 C23.4272635,1.38893082 23.1515878,1.44440252 22.9017568,1.55421384 C22.6519257,1.66402516 22.4371284,1.81459119 22.2579392,2.00591195 C22.07875,2.1972327 21.9386149,2.42025157 21.8392568,2.67666667 C21.7398986,2.93194969 21.6899324,3.20647799 21.6899324,3.49742138 C21.6899324,3.78949686 21.7393243,4.06289308 21.8392568,4.3181761 C21.9386149,4.57402516 22.0781757,4.79761006 22.2579392,4.98893082 C22.4377027,5.18025157 22.6519257,5.33081761 22.9017568,5.44062893 C23.1510135,5.55100629 23.4266892,5.60591195 23.7276351,5.60591195 Z" id="Shape"></path>
                    <path d="M28.7621622,0.959308176 L30.7407095,0.959308176 C30.9107095,0.959308176 31.0898986,0.978553459 31.2794257,1.01704403 C31.4689527,1.05496855 31.6567568,1.11610063 31.8434122,1.19987421 C32.0300676,1.28308176 32.2098311,1.39232704 32.3821284,1.52591195 C32.5538514,1.65949686 32.705473,1.82081761 32.8369932,2.00930818 C32.9679392,2.19836478 33.0724662,2.41628931 33.15,2.66194969 C33.2275338,2.9081761 33.2665878,3.18666667 33.2665878,3.49742138 C33.2665878,3.8081761 33.2275338,4.08666667 33.15,4.33289308 C33.0724662,4.57968553 32.9679392,4.79647799 32.8369932,4.98553459 C32.7060473,5.17402516 32.5544257,5.33534591 32.3821284,5.46893082 C32.2098311,5.60251572 32.0300676,5.71176101 31.8434122,5.79496855 C31.6567568,5.87874214 31.4689527,5.93987421 31.2794257,5.97779874 C31.090473,6.01628931 30.9107095,6.03553459 30.7407095,6.03553459 L28.7621622,6.03553459 L28.7621622,0.959308176 Z M29.3732432,5.47685535 L30.5373986,5.47685535 C30.8331757,5.47685535 31.1071284,5.43893082 31.3598311,5.36251572 C31.6119595,5.28553459 31.8302027,5.1672327 32.0145608,5.00761006 C32.1989189,4.84742138 32.344223,4.64251572 32.4510473,4.39402516 C32.5578716,4.14610063 32.6112838,3.84666667 32.6112838,3.49798742 C32.6112838,3.14930818 32.5578716,2.84987421 32.4510473,2.60194969 C32.344223,2.35345912 32.1989189,2.14855346 32.0145608,1.98836478 C31.8302027,1.82874214 31.6119595,1.71044025 31.3598311,1.63345912 C31.1077027,1.55704403 30.8331757,1.5191195 30.5373986,1.5191195 L29.3732432,1.5191195 L29.3732432,5.47685535 Z" id="Shape"></path>
                    <path d="M38.0960811,6.16572327 C37.7032432,6.16572327 37.3431419,6.09893082 37.015777,5.96534591 C36.6884122,5.83176101 36.4046959,5.64666667 36.1646284,5.41006289 C35.9245608,5.17345912 35.7379054,4.89157233 35.6046622,4.56383648 C35.4714189,4.23666667 35.404223,3.88176101 35.404223,3.4991195 C35.404223,3.11647799 35.4708446,2.76157233 35.6046622,2.43440252 C35.7379054,2.10666667 35.9245608,1.82477987 36.1646284,1.5881761 C36.4046959,1.35157233 36.6884122,1.16647799 37.015777,1.03289308 C37.3431419,0.899308176 37.7032432,0.832515723 38.0960811,0.832515723 C38.4889189,0.832515723 38.8495946,0.899308176 39.1763851,1.03289308 C39.5031757,1.16647799 39.7874662,1.35157233 40.0275338,1.5881761 C40.2676014,1.82477987 40.4542568,2.10666667 40.5880743,2.43440252 C40.7213176,2.76157233 40.7885135,3.11647799 40.7885135,3.4991195 C40.7885135,3.88176101 40.7218919,4.23666667 40.5880743,4.56383648 C40.4548311,4.89157233 40.2681757,5.17345912 40.0275338,5.41006289 C39.7874662,5.64666667 39.50375,5.83176101 39.1763851,5.96534591 C38.8490203,6.09893082 38.4889189,6.16572327 38.0960811,6.16572327 Z M38.0960811,5.60591195 C38.397027,5.60591195 38.6721284,5.55044025 38.9219595,5.44062893 C39.1717905,5.33138365 39.3865878,5.18025157 39.565777,4.98893082 C39.7449662,4.79761006 39.884527,4.57459119 39.9844595,4.3181761 C40.0838176,4.06289308 40.1337838,3.78893082 40.1337838,3.49742138 C40.1337838,3.20591195 40.0838176,2.93194969 39.9844595,2.67666667 C39.8851014,2.42081761 39.7455405,2.1972327 39.565777,2.00591195 C39.3860135,1.81459119 39.1717905,1.66402516 38.9219595,1.55421384 C38.6721284,1.44440252 38.397027,1.38893082 38.0960811,1.38893082 C37.7957095,1.38893082 37.5200338,1.44440252 37.2702027,1.55421384 C37.0203716,1.66402516 36.8055743,1.81459119 36.6263851,2.00591195 C36.4471959,2.1972327 36.3070608,2.42025157 36.2077027,2.67666667 C36.1083446,2.93194969 36.0583784,3.20647799 36.0583784,3.49742138 C36.0583784,3.78949686 36.1077703,4.06289308 36.2077027,4.3181761 C36.3070608,4.57402516 36.4466216,4.79761006 36.6263851,4.98893082 C36.8061486,5.18025157 37.0203716,5.33081761 37.2702027,5.44062893 C37.5200338,5.55100629 37.7957095,5.60591195 38.0960811,5.60591195 Z" id="Shape"></path>
                    <polygon id="Shape" points="43.2253716 0.959308176 43.9966892 0.959308176 46.9797297 5.17515723 46.9940878 5.17515723 46.9940878 0.959308176 47.6051689 0.959308176 47.6051689 6.03610063 46.8338514 6.03610063 43.8508108 1.82025157 43.8364527 1.82025157 43.8364527 6.03610063 43.2253716 6.03610063"></polygon>
                    <polygon id="Shape" points="53.7963851 1.5191195 52.0940878 1.5191195 52.0940878 6.03610063 51.4830068 6.03610063 51.4830068 1.5191195 49.7807095 1.5191195 49.7807095 0.959874214 53.7969595 0.959874214"></polygon>
                    <polygon id="Shape" points="55.9719257 0.959308176 56.5830068 0.959308176 56.5830068 6.03610063 55.9719257 6.03610063"></polygon>
                    <path d="M62.9269932,2.00647799 C62.7713514,1.80100629 62.5801014,1.64647799 62.3520946,1.54402516 C62.1240878,1.44157233 61.8863176,1.39006289 61.6393581,1.39006289 C61.3527703,1.39006289 61.0897297,1.44779874 60.8496622,1.5627044 C60.6095946,1.67704403 60.4022635,1.83157233 60.2276689,2.02459119 C60.0530743,2.21874214 59.9169595,2.44289308 59.820473,2.69874214 C59.7234122,2.95402516 59.6751689,3.22119497 59.6751689,3.49798742 C59.6751689,3.79402516 59.7234122,4.07081761 59.820473,4.32610063 C59.9175338,4.58194969 60.0519257,4.80440252 60.224223,4.99345912 C60.3965203,5.18194969 60.6027027,5.33194969 60.8427703,5.44119497 C61.0828378,5.55100629 61.3481757,5.60647799 61.6393581,5.60647799 C61.9546622,5.60647799 62.2360811,5.54534591 62.4830405,5.4236478 C62.7305743,5.30138365 62.9465203,5.12647799 63.1303041,4.89610063 L63.5886149,5.27647799 C63.3560135,5.5827044 63.0757432,5.80742138 62.7483784,5.95006289 C62.4210135,6.09383648 62.0511486,6.16515723 61.6387838,6.16515723 C61.2700676,6.16515723 60.9260473,6.09836478 60.6055743,5.96477987 C60.2856757,5.83119497 60.0077027,5.64610063 59.7722297,5.40949686 C59.5367568,5.17289308 59.352973,4.89213836 59.2197297,4.5672327 C59.0864865,4.24232704 59.0192905,3.88572327 59.0192905,3.49855346 C59.0192905,3.12553459 59.0836149,2.77685535 59.2122635,2.45138365 C59.3409122,2.12647799 59.52125,1.84459119 59.7544257,1.60515723 C59.987027,1.36628931 60.2638514,1.17779874 60.58375,1.0391195 C60.904223,0.900440252 61.2551351,0.831383648 61.6387838,0.831383648 C61.987973,0.831383648 62.3239527,0.893081761 62.6461486,1.01761006 C62.9683446,1.14213836 63.2394257,1.34477987 63.4576689,1.62666667 L62.9269932,2.00647799 Z" id="Shape"></path>
                    <path d="M68.3394257,1.85534591 C68.2377703,1.69345912 68.1016554,1.57515723 67.9322297,1.50044025 C67.7628041,1.42628931 67.5853378,1.38949686 67.4009797,1.38949686 C67.2654392,1.38949686 67.1316216,1.40647799 67.0006757,1.43987421 C66.8697297,1.47383648 66.7519932,1.5236478 66.6480405,1.59100629 C66.5440878,1.65836478 66.4602365,1.74610063 66.3970608,1.85591195 C66.3338851,1.96628931 66.3022973,2.09534591 66.3022973,2.2436478 C66.3022973,2.35855346 66.3206757,2.45987421 66.3568581,2.5481761 C66.3930405,2.63647799 66.4527703,2.71685535 66.535473,2.78874214 C66.6181757,2.86062893 66.7295946,2.92742138 66.8703041,2.9891195 C67.0110135,3.05138365 67.1833108,3.1136478 67.3866216,3.17534591 C67.5853378,3.23761006 67.7783108,3.30496855 67.9649662,3.37572327 C68.1516216,3.44761006 68.3164527,3.53874214 68.4594595,3.64798742 C68.6024662,3.75779874 68.7167568,3.89591195 68.8011824,4.06062893 C68.8861824,4.22591195 68.9286824,4.43251572 68.9286824,4.68100629 C68.9286824,4.93459119 68.8781419,5.15421384 68.7759122,5.34100629 C68.6736824,5.5272327 68.5392905,5.68176101 68.3721622,5.80289308 C68.2044595,5.92515723 68.0120608,6.01572327 67.7938176,6.07515723 C67.5755743,6.13459119 67.3504392,6.16459119 67.1172635,6.16459119 C66.9667905,6.16459119 66.8163176,6.15213836 66.6658446,6.12553459 C66.5153716,6.09949686 66.3712162,6.05874214 66.2328041,6.00383648 C66.0943919,5.94836478 65.9651689,5.87704403 65.8434122,5.7881761 C65.7222297,5.70044025 65.6177027,5.59119497 65.5309797,5.46213836 L66.0547635,5.03930818 C66.1661824,5.22553459 66.32125,5.36647799 66.5205405,5.46213836 C66.7198311,5.55779874 66.9306081,5.60591195 67.1534459,5.60591195 C67.2843919,5.60591195 67.4164865,5.58666667 67.5497297,5.5481761 C67.682973,5.50968553 67.8030068,5.4536478 67.9098311,5.37949686 C68.0166554,5.30534591 68.1039527,5.2136478 68.171723,5.10383648 C68.2394932,4.99402516 68.2739527,4.8672327 68.2739527,4.72345912 C68.2739527,4.56610063 68.2469595,4.4381761 68.1935473,4.33968553 C68.1401351,4.24176101 68.0580068,4.15685535 67.9460135,4.08553459 C67.8345946,4.0136478 67.6938851,3.9491195 67.5238851,3.89138365 C67.3544595,3.83421384 67.1551689,3.76742138 66.9271622,3.69100629 C66.7428041,3.63327044 66.5728041,3.5681761 66.4177365,3.49402516 C66.2620946,3.41987421 66.1277027,3.32874214 66.0139865,3.22176101 C65.9002703,3.11421384 65.8106757,2.98515723 65.7446284,2.83402516 C65.6791554,2.68345912 65.6464189,2.50289308 65.6464189,2.29289308 C65.6464189,2.04893082 65.6946622,1.83610063 65.791723,1.65440252 C65.8887838,1.47327044 66.0197297,1.32100629 66.1845608,1.19930818 C66.3493919,1.07704403 66.5360473,0.985345912 66.744527,0.923081761 C66.9530068,0.861383648 67.17125,0.830251572 67.3992568,0.830251572 C67.6904392,0.830251572 67.955777,0.874402516 68.1958446,0.962138365 C68.4359122,1.05100629 68.6507095,1.20553459 68.8396622,1.42459119 L68.3394257,1.85534591 Z" id="Shape"></path>
                    <path d="M77.8485135,5.30477987 C77.6400338,5.56289308 77.4166216,5.76383648 77.1788514,5.90704403 C76.9410811,6.05025157 76.650473,6.12213836 76.3058784,6.12213836 C76.0876351,6.12213836 75.8791554,6.08930818 75.6804392,6.02534591 C75.4811486,5.96081761 75.308277,5.86628931 75.1601014,5.74176101 C75.0119257,5.6172327 74.8930405,5.46610063 74.8034459,5.28610063 C74.713277,5.1072327 74.6690541,4.90232704 74.6690541,4.67308176 C74.6690541,4.49647799 74.6989189,4.33232704 74.7597973,4.18232704 C74.8201014,4.03119497 74.9028041,3.89534591 75.0073311,3.77308176 C75.1118581,3.65138365 75.2330405,3.54383648 75.3708784,3.45100629 C75.5092905,3.35761006 75.6557432,3.27496855 75.8113851,3.20308176 C75.6413851,3.03610063 75.4960811,2.85949686 75.3748986,2.67213836 C75.2537162,2.48591195 75.1934122,2.27081761 75.1934122,2.02685535 C75.1934122,1.84062893 75.2295946,1.67421384 75.3025338,1.5281761 C75.3748986,1.3827044 75.4719595,1.26044025 75.5931419,1.16251572 C75.7143243,1.06459119 75.8550338,0.989874214 76.0152703,0.940062893 C76.1755068,0.889685535 76.3449324,0.864213836 76.5246959,0.864213836 C76.6992905,0.864213836 76.8641216,0.888553459 77.0191892,0.936100629 C77.1748311,0.984213836 77.3115203,1.05440252 77.4304054,1.14779874 C77.5492905,1.24062893 77.6429054,1.35779874 77.7106757,1.49874214 C77.7784459,1.64025157 77.8123311,1.80383648 77.8123311,1.99006289 C77.8123311,2.14742138 77.7795946,2.29232704 77.7141216,2.42421384 C77.6486486,2.55553459 77.5636486,2.67213836 77.4596959,2.77515723 C77.3557432,2.8781761 77.2391554,2.97157233 77.1105068,3.05477987 C76.9818581,3.13855346 76.8520608,3.21383648 76.7211149,3.28062893 L77.8123311,4.42062893 L78.5038176,3.28062893 L79.1947297,3.28062893 L78.2051689,4.84402516 L79.3836824,6.03440252 L78.5468919,6.03440252 L77.8485135,5.30477987 Z M76.1898649,3.56987421 C76.0784459,3.62704403 75.9693243,3.69044025 75.8625,3.75949686 C75.7556757,3.8291195 75.6591892,3.90666667 75.5718919,3.9927044 C75.4845946,4.07874214 75.4139527,4.17666667 75.3605405,4.28704403 C75.3071284,4.39742138 75.2807095,4.51855346 75.2807095,4.6527044 C75.2807095,4.79138365 75.3071284,4.9181761 75.3605405,5.03308176 C75.4139527,5.14798742 75.4868919,5.2481761 75.5787838,5.33421384 C75.6706757,5.41968553 75.7775,5.48761006 75.8986824,5.53459119 C76.0198649,5.5827044 76.1485135,5.60647799 76.2840541,5.60647799 C76.415,5.60647799 76.5361824,5.5872327 76.6476014,5.54874214 C76.7590203,5.51025157 76.8623986,5.45930818 76.9571622,5.39477987 C77.0519257,5.33025157 77.1415203,5.25610063 77.2265203,5.17232704 C77.3109459,5.0891195 77.3947973,4.9991195 77.4775,4.90289308 L76.1898649,3.56987421 Z M76.3426351,2.91666667 C76.4391216,2.86402516 76.5390541,2.80968553 76.6407095,2.75194969 C76.7423649,2.69421384 76.8348311,2.62968553 76.9169595,2.55836478 C76.9996622,2.48647799 77.0674324,2.40327044 77.1208446,2.30761006 C77.1742568,2.21194969 77.2006757,2.10213836 77.2006757,1.97761006 C77.2006757,1.79138365 77.1363514,1.64534591 77.0077027,1.54062893 C76.8790541,1.43591195 76.7251351,1.3827044 76.5459459,1.3827044 C76.3426351,1.3827044 76.1674662,1.44383648 76.0221622,1.56553459 C75.8768581,1.68779874 75.8039189,1.8536478 75.8039189,2.06421384 C75.8039189,2.20289308 75.84125,2.32572327 75.9164865,2.43327044 C75.991723,2.54025157 76.0727027,2.63987421 76.16,2.73044025 L76.3426351,2.91666667 Z" id="Shape"></path>
                    <path d="M84.9638176,0.959308176 L86.9423649,0.959308176 C87.1123649,0.959308176 87.2915541,0.978553459 87.4810811,1.01704403 C87.6706081,1.05496855 87.8584122,1.11610063 88.0450676,1.19987421 C88.231723,1.28308176 88.4114865,1.39232704 88.5837838,1.52591195 C88.7555068,1.65949686 88.9071284,1.82081761 89.0386486,2.00930818 C89.1695946,2.19836478 89.2741216,2.41628931 89.3516554,2.66194969 C89.4291892,2.9081761 89.4682432,3.18666667 89.4682432,3.49742138 C89.4682432,3.8081761 89.4291892,4.08666667 89.3516554,4.33289308 C89.2741216,4.57968553 89.1695946,4.79647799 89.0386486,4.98553459 C88.9077027,5.17402516 88.7560811,5.33534591 88.5837838,5.46893082 C88.4114865,5.60251572 88.231723,5.71176101 88.0450676,5.79496855 C87.8584122,5.87874214 87.6706081,5.93987421 87.4810811,5.97779874 C87.2921284,6.01628931 87.1123649,6.03553459 86.9423649,6.03553459 L84.9638176,6.03553459 L84.9638176,0.959308176 Z M85.5748986,5.47685535 L86.7390541,5.47685535 C87.0348311,5.47685535 87.3087838,5.43893082 87.5614865,5.36251572 C87.8136149,5.28553459 88.0318581,5.1672327 88.2162162,5.00761006 C88.4005743,4.84742138 88.5458784,4.64251572 88.6527027,4.39402516 C88.759527,4.14610063 88.8129392,3.84666667 88.8129392,3.49798742 C88.8129392,3.14930818 88.759527,2.84987421 88.6527027,2.60194969 C88.5458784,2.35345912 88.4005743,2.14855346 88.2162162,1.98836478 C88.0318581,1.82874214 87.8136149,1.71044025 87.5614865,1.63345912 C87.3093581,1.55704403 87.0348311,1.5191195 86.7390541,1.5191195 L85.5748986,1.5191195 L85.5748986,5.47685535 Z" id="Shape"></path>
                    <polygon id="Shape" points="91.904527 0.959308176 95.1419932 0.959308176 95.1419932 1.51855346 92.5156081 1.51855346 92.5156081 3.11081761 94.9673986 3.11081761 94.9673986 3.66949686 92.5156081 3.66949686 92.5156081 5.47628931 95.2729392 5.47628931 95.2729392 6.03553459 91.904527 6.03553459 91.904527 0.959308176"></polygon>
                    <polygon id="Shape" points="97.6736149 0.959308176 98.4449324 0.959308176 101.427973 5.17515723 101.442331 5.17515723 101.442331 0.959308176 102.053412 0.959308176 102.053412 6.03610063 101.282095 6.03610063 98.2990541 1.82025157 98.2846959 1.82025157 98.2846959 6.03610063 97.6736149 6.03610063"></polygon>
                    <polygon id="Shape" points="108.244628 1.5191195 106.542331 1.5191195 106.542331 6.03610063 105.93125 6.03610063 105.93125 1.5191195 104.228953 1.5191195 104.228953 0.959874214 108.245203 0.959874214"></polygon>
                    <path d="M111.424088,0.959308176 L111.998986,0.959308176 L114.188885,6.03610063 L113.475574,6.03610063 L112.951791,4.78855346 L110.37652,4.78855346 L109.84527,6.03610063 L109.154358,6.03610063 L111.424088,0.959308176 Z M111.700912,1.7336478 L111.686554,1.7336478 L110.617162,4.22874214 L112.719764,4.22874214 L111.700912,1.7336478 Z" id="Shape"></path>
                    <polygon id="Shape" points="116.327669 0.959308176 116.93875 0.959308176 116.93875 5.47628931 119.295777 5.47628931 119.295777 6.03553459 116.327669 6.03553459"></polygon>
                    <polygon id="Shape" points="124.898311 0.959308176 125.508818 0.959308176 125.508818 6.03610063 124.898311 6.03610063"></polygon>
                    <polygon id="Shape" points="128.244899 0.959308176 129.154054 0.959308176 130.9 4.93855346 130.914358 4.93855346 132.674662 0.959308176 133.562568 0.959308176 133.562568 6.03610063 132.951486 6.03610063 132.951486 1.7772327 132.937128 1.7772327 131.088953 6.03610063 130.717939 6.03610063 128.869764 1.7772327 128.855405 1.7772327 128.855405 6.03610063 128.244899 6.03610063 128.244899 0.959308176"></polygon>
                    <path d="M136.298649,0.959308176 L137.826351,0.959308176 C138.063547,0.959308176 138.29098,0.981949686 138.506351,1.0272327 C138.722297,1.07308176 138.914122,1.14949686 139.08125,1.25647799 C139.248953,1.36402516 139.381622,1.5072327 139.481554,1.6872327 C139.580912,1.86610063 139.630878,2.08742138 139.630878,2.35062893 C139.630878,2.62742138 139.576892,2.8572327 139.470642,3.03893082 C139.364392,3.22062893 139.227128,3.36383648 139.059426,3.4691195 C138.892297,3.57440252 138.709088,3.64798742 138.510372,3.69157233 C138.311081,3.73459119 138.122128,3.75610063 137.942939,3.75610063 L136.90973,3.75610063 L136.90973,6.03610063 L136.299223,6.03610063 L136.298649,0.959308176 L136.298649,0.959308176 L136.298649,0.959308176 Z M136.910304,3.19628931 L137.943514,3.19628931 C138.249054,3.19628931 138.497736,3.12836478 138.689561,2.99194969 C138.880811,2.85610063 138.976723,2.64440252 138.976723,2.35798742 C138.976723,2.07100629 138.880811,1.85930818 138.689561,1.72345912 C138.497736,1.58704403 138.249054,1.5191195 137.943514,1.5191195 L136.910304,1.5191195 L136.910304,3.19628931 Z" id="Shape"></path>
                    <polygon id="Shape" points="142.067736 0.959308176 142.678243 0.959308176 142.678243 5.47628931 145.03527 5.47628931 145.03527 6.03553459 142.067162 6.03553459 142.067736 0.959308176"></polygon>
                    <path d="M148.833851,0.959308176 L149.40875,0.959308176 L151.598074,6.03610063 L150.885338,6.03610063 L150.361554,4.78855346 L147.786284,4.78855346 L147.255034,6.03610063 L146.564122,6.03610063 L148.833851,0.959308176 Z M149.110676,1.7336478 L149.096318,1.7336478 L148.026926,4.22874214 L150.129527,4.22874214 L149.110676,1.7336478 Z" id="Shape"></path>
                    <polygon id="Shape" points="153.738007 0.959308176 154.509324 0.959308176 157.491791 5.17515723 157.506149 5.17515723 157.506149 0.959308176 158.116655 0.959308176 158.116655 6.03610063 157.345338 6.03610063 154.362872 1.82025157 154.348514 1.82025157 154.348514 6.03610063 153.738007 6.03610063"></polygon>
                    <polygon id="Shape" points="164.308446 1.5191195 162.606149 1.5191195 162.606149 6.03610063 161.995068 6.03610063 161.995068 1.5191195 160.29277 1.5191195 160.29277 0.959874214 164.308446 0.959874214 164.308446 1.5191195"></polygon>
                    <path d="M168.928885,1.85534591 C168.826655,1.69345912 168.691115,1.57515723 168.521689,1.50044025 C168.351689,1.42628931 168.174797,1.38949686 167.990439,1.38949686 C167.854324,1.38949686 167.721081,1.40647799 167.590135,1.43987421 C167.459189,1.47383648 167.341453,1.5236478 167.2375,1.59100629 C167.133547,1.65836478 167.049696,1.74610063 166.98652,1.85591195 C166.923345,1.96628931 166.891757,2.09534591 166.891757,2.2436478 C166.891757,2.35855346 166.909561,2.45987421 166.946318,2.5481761 C166.983074,2.63647799 167.04223,2.71685535 167.124932,2.78874214 C167.207635,2.86062893 167.319054,2.92742138 167.459764,2.9891195 C167.599899,3.05138365 167.77277,3.1136478 167.976081,3.17534591 C168.174797,3.23761006 168.36777,3.30496855 168.554426,3.37572327 C168.741081,3.44761006 168.905912,3.53874214 169.048919,3.64798742 C169.191926,3.75779874 169.305642,3.89591195 169.391216,4.06062893 C169.475642,4.22591195 169.518716,4.43251572 169.518716,4.68100629 C169.518716,4.93459119 169.467601,5.15421384 169.365372,5.34100629 C169.263716,5.5272327 169.129324,5.68176101 168.961622,5.80289308 C168.794493,5.92515723 168.60152,6.01572327 168.383277,6.07515723 C168.165034,6.13459119 167.939899,6.16459119 167.706723,6.16459119 C167.55625,6.16459119 167.405777,6.15213836 167.255878,6.12553459 C167.104831,6.09949686 166.960676,6.05874214 166.822838,6.00383648 C166.684426,5.94836478 166.554628,5.87704403 166.433446,5.7881761 C166.311689,5.70044025 166.207736,5.59119497 166.120439,5.46213836 L166.644223,5.03930818 C166.755642,5.22553459 166.910709,5.36647799 167.11,5.46213836 C167.309291,5.55779874 167.520068,5.60591195 167.74348,5.60591195 C167.874426,5.60591195 168.00652,5.58666667 168.139764,5.5481761 C168.272432,5.51025157 168.392466,5.4536478 168.499865,5.37949686 C168.606689,5.30534591 168.693412,5.2136478 168.761757,5.10383648 C168.829527,4.99402516 168.863412,4.8672327 168.863412,4.72345912 C168.863412,4.56610063 168.836993,4.4381761 168.783581,4.33968553 C168.729595,4.24176101 168.647466,4.15685535 168.536047,4.08553459 C168.424628,4.0136478 168.283919,3.9491195 168.113919,3.89138365 C167.943919,3.83421384 167.745203,3.76742138 167.517196,3.69100629 C167.333412,3.63327044 167.163412,3.5681761 167.00777,3.49402516 C166.852703,3.41987421 166.718311,3.32874214 166.604595,3.22176101 C166.490304,3.11421384 166.400709,2.98515723 166.335236,2.83402516 C166.269764,2.68345912 166.236453,2.50289308 166.236453,2.29289308 C166.236453,2.04893082 166.28527,1.83610063 166.382331,1.65440252 C166.479392,1.47327044 166.609764,1.32100629 166.775169,1.19930818 C166.94,1.07704403 167.126655,0.985345912 167.335709,0.923081761 C167.544189,0.861383648 167.762432,0.830251572 167.991014,0.830251572 C168.282196,0.830251572 168.547534,0.874402516 168.787601,0.962138365 C169.027669,1.05100629 169.242466,1.20553459 169.431419,1.42459119 L168.928885,1.85534591 Z" id="Shape"></path>
                </g>
            </g>
        </g>
    </g>
</svg>