<?xml version="1.0" encoding="utf-8"?>
<!-- Generator: Adobe Illustrator 19.1.0, SVG Export Plug-In . SVG Version: 6.00 Build 0)  -->
<svg version="1.1" id="header-mark" xmlns="http://www.w3.org/2000/svg" xmlns:xlink="http://www.w3.org/1999/xlink" x="0px"
	 y="0px" viewBox="-251 219.7 289 174.3" style="enable-background:new -251 219.7 289 174.3;" xml:space="preserve">
<style type="text/css">
	.st0{fill:url(#mark-fill_1_);}
	.st1{fill:url(#mark-stroke_1_);}
</style>
<g id="mark-group">
	
		<linearGradient id="mark-fill_1_" gradientUnits="userSpaceOnUse" x1="55.5" y1="1229.6523" x2="55.5" y2="1106.9696" gradientTransform="matrix(1 0 0 1 -162 -849.372)">
		<stop  offset="0" style="stop-color:#7EBE42"/>
		<stop  offset="1" style="stop-color:#B4CE34;stop-opacity:0.9"/>
	</linearGradient>
	<path id="mark-fill" class="st0" d="M9.6,243.8c-13.6,0-23.5,6.1-31.3,24.5l-14.7,35.8c-4.9,11.7-7.8,17.9-33.8,17.9h-21.3l7.7-17
		c4.5-10,5.4-16.1,22.9-16.1h22.8L-49,273c-6.7-9.9-16.2-13.4-25.7-13.4c-8.5,0-17.6,1.3-25.2,6.8c-5.8-4.3-13.2-6.8-21.1-6.8h-41
		c-18.3,0-34.5,5-40.9,20.3l-37.1,90.4h17.4c13.6,0,23.5-6.1,31.3-24.5l14.7-35.8c4.9-11.7,7.8-17.9,33.8-17.9h21.3l-7.7,17
		c-4.5,10-5.4,16.1-22.9,16.1h-22.8L-164,341c6.7,9.9,16.2,13.4,25.7,13.4c8.5,0,17.6-1.3,25.2-6.8c5.8,4.3,13.2,6.8,21.1,6.8h41
		c18.3,0,34.5-5,40.9-20.3L27,243.7C27,243.8,9.6,243.8,9.6,243.8z"/>
	
		<linearGradient id="mark-stroke_1_" gradientUnits="userSpaceOnUse" x1="-80" y1="2702.8643" x2="191" y2="2702.8643" gradientTransform="matrix(1 0 0 0.3 -162 -503.8093)">
		<stop  offset="0" style="stop-color:#929497"/>
		<stop  offset="0.4892" style="stop-color:#FFFFFF"/>
		<stop  offset="1" style="stop-color:#929497"/>
	</linearGradient>
	<path id="mark-stroke" class="st1" d="M-222.6,371.7H-242l37.9-92.3c5.8-14,20-21.2,42.2-21.2h41c7.7,0,15,2.2,21.1,6.5
		c6.5-4.4,14.5-6.5,25.2-6.5c7.9,0,19,2.4,26.8,14l12.3,17.9h-25.4c-15,0-17,4.5-20.5,12.7c-0.4,0.9-0.8,1.7-1.2,2.7l-6.8,15.1h19.2
		c25.5,0,27.8-5.7,32.6-17.1l14.7-35.8c7.5-17.8,17.2-25.3,32.5-25.3H29l-37.9,92.3c-5.8,14-20,21.2-42.2,21.2h-41
		c-7.7,0-15-2.2-21.1-6.5c-6.5,4.4-14.5,6.5-25.2,6.5c-7.9,0-19-2.4-26.8-14l-12.3-18h25.4c15,0,17-4.5,20.5-12.7
		c0.4-0.9,0.8-1.7,1.2-2.7l6.8-15.1h-19.2c-25.5,0-27.8,5.7-32.6,17.1l-14.7,35.8C-197.6,364.1-207.3,371.7-222.6,371.7z M-238,369
		h15.4c14.2,0,22.9-6.9,30-23.7l14.7-35.8c5.3-12.7,9-18.8,35.1-18.8h23.3l-8.4,19c-0.4,0.9-0.8,1.8-1.2,2.6
		c-3.7,8.6-6.2,14.3-23,14.3h-20.2l9.4,13.7c7.2,10.6,17.3,12.8,24.6,12.8c10.5,0,18.3-2.1,24.4-6.6l0.8-0.6l0.8,0.6
		c5.8,4.3,12.8,6.6,20.3,6.6h41c21,0,34.3-6.6,39.7-19.5L25,245.1H9.6c-14.2,0-22.9,6.9-30,23.7l-14.7,35.8
		c-5.3,12.7-9,18.8-35.1,18.8h-23.3l8.5-18.9c0.4-0.9,0.8-1.8,1.2-2.6c3.7-8.6,6.2-14.3,23-14.3h20.3l-9.6-13.9
		c-7.2-10.6-17.3-12.8-24.6-12.8c-10.5,0-18.3,2.1-24.4,6.6l-0.8,0.6l-0.8-0.6c-5.8-4.3-12.8-6.6-20.3-6.6h-41
		c-21,0-34.3,6.6-39.7,19.5L-238,369z"/>
</g>
</svg>
